<svg xmlns="http://www.w3.org/2000/svg" viewBox="0 0 380.56 372.29"><defs><style>.cls-1{fill:#8becee;}.cls-2{fill:#5ccfd1;}</style></defs><g id="OBJECTS"><path class="cls-1" d="M-533,41c.64-.36.72.18.89.55,2,4.49,5.23,8.15,8.54,11.71.09.1.21.16.07,0a53.25,53.25,0,0,1-1.09-7.54c-.06-5.75,1.5-11,5.51-15.38a8.53,8.53,0,0,0,.54-.94c.53-.77,1.09-1.52,1.86-2.59-.12-.63-.52-1.8.82-2.47-.74-2.06-.53-2.55,1-2.9.26-.68.48-1.29.74-2l-1.74-1.43.23-.42a6.91,6.91,0,0,1,1.73.75c2.1,1.69,4.19,3.4,6.19,5.2a25.92,25.92,0,0,1,2.93,3.26c1.76,2.26,1.89,4.25.33,6.66-1.47,2.26-3.11,4.42-4.66,6.63-2.25,3.2-3.81,6.64-3.71,10.66A10.83,10.83,0,0,0-509,58.68a2.44,2.44,0,0,0,1.28.49A49.8,49.8,0,0,0-485,56.85c6.12-2,12.16-4.34,18.23-6.53a5,5,0,0,1,1.35-.42c.43,0,1.06.08,1.25.36a1.91,1.91,0,0,1,.08,1.4,6.39,6.39,0,0,1-.73,1.21q-2.58,4.5-5.14,9c.07.07.13.15.19.22,1.92-.53,3.81-1.21,5.76-1.55,3.5-.61,5.22-2.9,6.14-6,.54-1.82,1-3.65,1.51-5.49a6.06,6.06,0,0,1,2.4-3.41c4.25-3.06,9-5.07,13.83-7,6.93-2.83,13.9-5.54,20.82-8.36,3.3-1.35,6.6-2.74,9.8-4.31,5-2.45,10.43-3.63,15.75-5.07a154.31,154.31,0,0,1,26-4.46c3.55-.33,7.11-.74,10.68-.83a31.64,31.64,0,0,1,10.75,1.8c.2.07.44.22.62.17,2.49-.68,4.72.36,6.81,1.31,9.4,4.31,16.19,11.43,20.75,20.57,3.07,6.14,2.15,12.5-.6,18.52a30.42,30.42,0,0,1-13.1,14.29,15.48,15.48,0,0,1-2.82,1.16,40,40,0,0,1-11.41,2.36,24.75,24.75,0,0,1-6.88-1,20.09,20.09,0,0,1-8.16-4.54c-3.78-3.47-7-7.36-8.73-12.27a27.11,27.11,0,0,1-.72-3.24l.47-.19c.2.39.42.77.6,1.18l2.51,5.87c.6-1,1.05-1.18,1.46-.29a3.31,3.31,0,0,0,3.65,2.2c.06-.58.08-1.26.2-1.92a4.76,4.76,0,0,1,3.88-3.95c2.66-.57,5.23,0,7.8.55,3.46.73,6.92,1.55,10.49,1.39.73,0,1.46-.11,2.18-.18,1.05-.09,2-.23,2.32-1.54.09-.39.49-.71.77-1.05a35.45,35.45,0,0,0,6.14-10.55,15,15,0,0,0,.88-6.24c-.11-1.66-.18-3.32-.26-5a.69.69,0,0,1,0-.32c.77-1.34-.31-1.93-1.06-2.64A26.79,26.79,0,0,0-344.43,25a58.23,58.23,0,0,0-15.27.38,227.19,227.19,0,0,0-49.81,13.68c-11.7,4.58-23,10-34.39,15.29a1.14,1.14,0,0,0-.57.45c-2.46,6-5.13,12-7.29,18.15a292.11,292.11,0,0,0-13.46,53.3c-1,6.54-1.93,13.1-1.54,19.73.19,3.15.9,6.27,1.39,9.4a10.57,10.57,0,0,0,.45,1.38c1.41-.89,2.76-1.61,3.95-2.53a27.73,27.73,0,0,0,6.56-7.58,81.65,81.65,0,0,0,6.43-13.4c.29-.74.39-1.81,1.53-1.72s1,1.16,1.28,1.92c0,0,0,.08,0,.11.32,1.24.73,2.46.94,3.71.24,1.46,2,1.45,2.29,3,1.06-1.51,1.92-.65,2.56-.28.48-.71.95-1.35,1.35-2a1.69,1.69,0,0,0,.07-.85c-.13-3.53-.28-7.07-.42-10.61,0-.18.05-.44-.05-.53-1.25-1-.84-2.48-.85-3.78,0-5.91-.23-11.84.05-17.74.39-8.11,1.44-16.15,4.8-23.68a36.78,36.78,0,0,1,8.23-11.38,13.12,13.12,0,0,1,2.73-1.62c-.21-.15-.68-.45-1.12-.78-.17-.13-.43-.43-.38-.51s.39-.53.57-.51a4.06,4.06,0,0,1,1.67.4,31.69,31.69,0,0,1,10.58,9.52,15.81,15.81,0,0,1,2.34,9.62c-.17,5.6-1.85,10.82-3.9,16-.12.29-.23.59-.36,1l.59.1c1.91.26,2.85,1.3,2.63,3.2a34.92,34.92,0,0,1-.92,4.27c-.33,1.29-.73,2.57-1.17,4.12a20.12,20.12,0,0,1,8.58-3.86c.15-1.56-1.55-2.74-.5-4.51l-5.21-3.19c0-.11,0-.22,0-.33.58,0,1.27-.2,1.73,0a41.29,41.29,0,0,1,5.95,3.37,26.62,26.62,0,0,1,7.13,8.37c1.39,2.43,1.37,5.11,1.07,7.79-.68,6-2.82,11.68-4.81,17.35A114.09,114.09,0,0,0-404,156.35a7,7,0,0,0-.12,2.18c.59-.7,1.21-1.38,1.78-2.09a60.29,60.29,0,0,0,7.84-14.13,152.09,152.09,0,0,0,7.2-21c.53-2,.6-2.06,2.6-1.64a4.76,4.76,0,0,0,1.4.14c1.56-.17,2.15-.88,2.15-2.46a51.67,51.67,0,0,1,7.06-26.44,20.46,20.46,0,0,1,3.33-4.3c2.18-2.11,4.69-1.89,6.52.53a31.11,31.11,0,0,1,2,3.85c.18.32.54.76.82.77a8.84,8.84,0,0,1,6.94,3.83c.13.17.27.32.45.53a25.78,25.78,0,0,1,.91-3.21,22,22,0,0,1,1.66-2.71c-.22-.26-.48-.6-.76-.92a1.35,1.35,0,0,1-.25-1.79.73.73,0,0,0,.1-.46c0-.26-.1-.51-.15-.77.3,0,.69-.05.91.11,1.6,1.12,3.2,2.26,4.75,3.47.89.69,1.63,1.58,2.52,2.26,3.22,2.43,3.92,5.65,3,9.37-1.43,5.85-2.93,11.68-4.35,17.52a67.53,67.53,0,0,0-2.06,16.26v1.35a32.31,32.31,0,0,0,5.63-4.64c3.36-3.9,5.52-8.47,7.45-13.18.83-2,1.64-4,2.49-6.06.13-.29.47-.65.74-.67s.53.36.79.57c.71.57.55,1.15.49,2a15.59,15.59,0,0,0,1.21,8.08l.37.15,2.52-4a1.86,1.86,0,0,1-1-2.59c2-6.63,4-13.27,6.06-19.88.79-2.54,1.76-5,2.64-7.53,0,0,.06-.08.06-.09a4.28,4.28,0,0,1-.17-3.26,7.07,7.07,0,0,0-.08-2,3.67,3.67,0,0,1-.63-.6,2.53,2.53,0,0,1-.23-.75c.26,0,.6-.19.77-.08a16,16,0,0,1,2.86,2c2.38,2.3,4.66,4.7,7,7.1a23.84,23.84,0,0,1,7.33-5.38,11.78,11.78,0,0,1,3.31-1c1.5-.2,2.36.55,2.27,2.08a23.64,23.64,0,0,1-.83,4.93c-.61,2.2-1.45,4.34-2.29,6.82a23.73,23.73,0,0,1,9.14-5.32c-.66-1.07-1.3-2-1.84-3.06a1.36,1.36,0,0,1,0-1.1c.09-.17.62-.12,1-.16l.75-1.45-3-2.12v-.25a4,4,0,0,1,1.51,0,11,11,0,0,1,2.23,1.34,44.62,44.62,0,0,1,8,8.1,9.12,9.12,0,0,1,1.75,7c-.56,5.45-2.7,10.43-4.64,15.46a127.88,127.88,0,0,0-6.55,20.84,35.38,35.38,0,0,0-.59,4.76,15.9,15.9,0,0,0,3.91-4.23c2.23-4.1,4.53-8.16,6.81-12.24.13-.22.26-.5.46-.59s.81-.35,1.06-.21a1.11,1.11,0,0,1,.41,1,18.93,18.93,0,0,1-.91,2.69,5.23,5.23,0,0,0,.34,4.34c.46.94,1.73,1.5,2.64,2.22a.37.37,0,0,0,.31,0,2,2,0,0,1,2.16.19c.64.35.91.11.79-.58s-.28-1.13-.35-1.71a3.4,3.4,0,0,1,.08-1.39,1.1,1.1,0,0,1,.78-.6c.15,0,.46.38.57.65a15.16,15.16,0,0,1,.45,1.45l.37,0a34.72,34.72,0,0,0,.73-3.45c.62-5.5,1.17-11,1.77-16.67-1.55-.78-.87-2.46-.78-3.75a67.79,67.79,0,0,1,1.21-7.44c2-10.89,3.81-21.85,7.47-32.37,1.38-4,3-7.82,4.56-11.72.11-.3.25-.6.38-.89-1.31-.6-1.49-1.07-.8-2.29,2.17-3.81,4.25-7.67,6.58-11.37a11.64,11.64,0,0,1,8.24-5.44c0-.1,0-.18,0-.23-.21-.36-.42-.72-.64-1.08.53,0,1.17-.07,1.56.2a33.9,33.9,0,0,1,7.65,7c1.32,1.69,2.79,3.29,3.17,5.54a24.56,24.56,0,0,1-.54,9.66,58.51,58.51,0,0,1-7.93,17.94c-2.7,4.28-5.56,8.47-8.27,12.57l1.28.36-.67,1.71.5.78a16.49,16.49,0,0,1,.9-2,5.9,5.9,0,0,1,1-1c.21.47.61.94.57,1.39a6.75,6.75,0,0,1-.61,2.42c-1.53,3.06-3.15,6.09-4.73,9.13-.16.3-.34.6-.57,1,1.67-1.21,3.18-2.41,4.8-3.43a38.22,38.22,0,0,1,4.08-2.09c.57-.28.9-.54.65-1.23a1.41,1.41,0,0,1,1-2c-.08-1.12-1.82-1.91-.55-3.32l-3.41-2.39c.39-.83,1-.64,1.56-.35a25.78,25.78,0,0,1,4,2.5,54.75,54.75,0,0,1,5.47,5.19c3.27,3.61,3.54,7.85.94,12s-6.39,6.76-10.48,9.09a40.61,40.61,0,0,1-11.71,4.43c0,.1-.07.18-.05.23,2.76,6.83,5.46,13.68,8.32,20.47,1.1,2.62,2.52,5.1,3.83,7.62a1.56,1.56,0,0,0,.86.74,13.85,13.85,0,0,0,7.24.5c4.27-1,7.11-3.89,8.88-7.68a41.38,41.38,0,0,0,2.13-7.53,3.42,3.42,0,0,0-.27-1.46c-.16-.66-.35-1.31-.53-2l.34-.24c-1.1-.63-2.21-1.24-3.29-1.9a4.93,4.93,0,0,1-.78-.74c.35-.15.71-.45,1-.41a6,6,0,0,1,2.19.59,28.49,28.49,0,0,1,9.16,8,12.91,12.91,0,0,1,1.45,12.4c-1.9,5.24-5.23,9.22-10.76,10.8A17.08,17.08,0,0,1-236,160.17,31.76,31.76,0,0,1-247.57,150c-2.49-3.48-4.46-7.33-6.66-11a3.85,3.85,0,0,1-.25-.77l.25-.16,1.47,1.8c-2.35-5-4.78-10.21-7.23-15.46-.12,2.27-.22,4.54-.36,6.8-.22,3.35-.36,6.71-.75,10a9,9,0,0,1-1.47,3.6,4.92,4.92,0,0,1-6,1.44,4.42,4.42,0,0,1-1-.71c-.78-.72-1.53-1.46-2.3-2.2l-2.34-2.28c-.51.9-1,1.81-1.53,2.69a31.34,31.34,0,0,1-7.3,8.94,12.23,12.23,0,0,1-15.72-.34,38.8,38.8,0,0,1-8.89-10.74,12.72,12.72,0,0,1-.71-2l.46-.24,3.6,4.85c2.19-1.48,2.77,1.17,4.41,1.62-.26-1.74-.37-3.44-.77-5.07a28.8,28.8,0,0,1,.86-17c2.56-7.1,5.11-14.21,7.58-21.35.82-2.37,1.35-4.84,2.09-7.52-1,.41-1.82.71-2.6,1.11a27.64,27.64,0,0,0-7.76,6c-6.72,7.22-11.57,15.62-15.49,24.59-.76,1.76-1.47,3.55-2.27,5.29-.64,1.38-1.49,1.54-2.54.46-1.43-1.46-2.77-3-4.15-4.52l-.44.23c-.29.65-.59,1.28-.87,1.93a46.54,46.54,0,0,1-7.36,12.23,14.76,14.76,0,0,1-6.32,4.56,8.32,8.32,0,0,1-6.16-.21c-5.78-2.37-10-6.51-13.21-11.7a27.41,27.41,0,0,1-1.45-3.1l.34-.27a4.83,4.83,0,0,1,.78.62c.65.84,1.23,1.73,1.89,2.56.51.64.89,1.46,2.06,1.13.35-.11.92.47,1.36.77s.66.55,1.19,1l-.4-1.71a2.12,2.12,0,0,1-2.67-1.82,48.92,48.92,0,0,1-1.34-7.17,41.74,41.74,0,0,1,1-12.4c.07-.35.08-.72.13-1.14-.16,0-.28,0-.32.09a99.4,99.4,0,0,1-6,8.07c-2.25,2.5-4,5.48-7.07,7.23-2.59,1.5-5.1,1.66-7.56-.59-.59,1.94-1.15,3.76-1.69,5.58-2.76,9.31-6,18.42-10.86,26.89-1.85,3.24-3.74,6.45-6.52,9a9.8,9.8,0,0,1-4.87,2.77,7,7,0,0,1-4.93-.91,32.66,32.66,0,0,1-10.13-9.23,32.47,32.47,0,0,1-2.6-5.13,1.2,1.2,0,0,1,.23-1.06l4.26,6.22c1.21-1.51,1.63-.06,2.29.37.07-.08.14-.14.13-.17-2.4-5.6-2.16-11.37-.81-17.1,1.41-6,3.15-11.92,4.71-17.88.85-3.24,1.68-6.5,2.44-9.77a26.64,26.64,0,0,0,.4-3.35c.09-.89.31-1.63,1.54-1.45a1.39,1.39,0,0,0-1.79-.76,20.41,20.41,0,0,0-8.5,5,48.32,48.32,0,0,0-12.75,20.63c-.83,2.61-1.68,5.19-1.17,8a7.59,7.59,0,0,1-.2,3,2.86,2.86,0,0,1-4.23,2,12.82,12.82,0,0,1-3-1.95c-1.36-1.19-2.59-2.54-3.91-3.86-1.07,2.14-2,4.21-3.11,6.22-1.82,3.42-3.69,6.85-6.45,9.6a32.05,32.05,0,0,1-5.7,4.56,9.18,9.18,0,0,1-9.3.3c-7-3.45-12-8.95-15.4-15.86a11.21,11.21,0,0,1-.69-2.29,3.24,3.24,0,0,1,.13-1l4.38,6.89h2.76a44.07,44.07,0,0,1-1.59-4.79,108.21,108.21,0,0,1-2.06-10.95c-1.12-9.85.11-19.61,1.74-29.3a201.43,201.43,0,0,1,7.44-30.94c1.71-5,3.82-9.94,5.74-14.91l.4-.94c-.43.14-.73.22-1,.33a101.35,101.35,0,0,1-22.72,6.35c-8.49,1.2-16.94,1.11-25-2.14-7.78-3.12-14.61-7.64-19.47-14.7-1.88-2.74-3.51-5.56-3.7-9a1.09,1.09,0,0,0-.19-.39Zm170.72,77.43c1.78-2.23,3.41-4.48,5.25-6.53s1.69-4.35,2.17-6.61c.33-1.54.09-3.2.33-4.78A4.72,4.72,0,0,0-356.41,96c-1.3-1.15-2.23-1.13-3.44.09-.87.87-1.59,1.89-2.24,2.67a10,10,0,0,1,.33,2.12c-.14,2.65-.45,5.3-.53,8C-362.39,112-362.32,115.15-362.32,118.42Zm21.05-98.62a26.58,26.58,0,0,1,3.45,2.76,17,17,0,0,0,6.67,4.7,21.55,21.55,0,0,1,2.7,1.48A33.9,33.9,0,0,0-341.27,19.8Zm-79.49,51.53.85-.77-1.43-1.15-.19.15C-421.27,70.14-421,70.72-420.76,71.33Z" transform="translate(555 46.58)"/><path class="cls-2" d="M-454.61,46c.77-.4,1.36-.75,2-1,8.1-3.68,16.19-7.38,24.31-11,2.42-1.09,4.91-2,7.36-3,3.22-1.35,6.41-2.75,9.65-4,1.07-.43,2.28-.49,3.39-.84,4.26-1.37,8.48-2.86,12.76-4.16a129.28,129.28,0,0,1,20.58-4.56c5.86-.78,11.72-1.64,17.65-1.32,6.69.37,13,2,18.4,6.14,1.12.87,2.08,1.94,3.13,2.89a8,8,0,0,0,1,.77,2.86,2.86,0,0,1,1.61,2.81,4.64,4.64,0,0,1-.65-.2A30.59,30.59,0,0,0-344.51,25a57.41,57.41,0,0,0-15.16.37,226.2,226.2,0,0,0-49.88,13.71c-11.29,4.42-22.24,9.58-33.18,14.76-1.91.9-1.9,1-3.48-.41q-3.57-3.06-7.12-6.16C-453.71,46.92-454.06,46.55-454.61,46Z" transform="translate(555 46.58)"/><path class="cls-2" d="M-532.33,41.6c3.24,5.2,6.09,10.2,11.51,13.25-1.33-2.47-3.92-4.11-3.66-7.42l1.55,1.89c2.08,2.49,4.15,5,6.27,7.46a3.54,3.54,0,0,0,1.51,1,34,34,0,0,0,9.43,1.81c9.05.48,17.7-1.37,26.13-4.5l12.91-4.76a2.48,2.48,0,0,1,.92-.3c.55,0,1.3.07,1.55.41a1.79,1.79,0,0,1-.1,1.57c-2,3.58-4.05,7.08-6,10.67a6,6,0,0,1-4.53,3.54c-5,.73-10.07,1.58-15.13,2.24a41,41,0,0,1-17.19-1.42A15,15,0,0,1-509,66.4c-6.8-2.91-13.23-6.35-18-12.2a27.16,27.16,0,0,1-5.05-8.14,17.21,17.21,0,0,1-.71-3.18C-532.85,42.55-532.55,42.18-532.33,41.6Z" transform="translate(555 46.58)"/><path class="cls-2" d="M-521.56,34.49a6.3,6.3,0,0,1,.53-1.7c1-1.44,2-2.81,3.15-4.34l10.24,9.47c-.9,1.38-1.83,2.73-2.68,4.12a14.42,14.42,0,0,0-2.32,10.22A23.38,23.38,0,0,0-511.27,56c.13.36.29,1,.15,1.11a2.62,2.62,0,0,1-1.38.37,1.55,1.55,0,0,1-.83-.48c-3.49-3.16-7-6.34-10.47-9.47a2.26,2.26,0,0,1-.91-2.08c.1-1,.18-2,.2-3s.63-1.44,1.85-1.2c-2.35-2.44-.17-4.34.46-6.39C-522.13,34.62-521.63,34.53-521.56,34.49Z" transform="translate(555 46.58)"/><path class="cls-2" d="M-414.71,102.58l.24-.68c.16.15.29.36.48.45.34.18.73.25,1.06.43a3.57,3.57,0,0,1,1.8,4.1c-.37,2.07-1,4.1-1.5,6.15l-.26,1,1.06-.57a2.82,2.82,0,0,1-1,2.72c-.72.53-1.37,1.17-2.14,1.84-1.3-1.56-2.6-3.07-3.86-4.62-1.08-1.33-2.16-2.67-3.16-4.06a16.73,16.73,0,0,1-1.1-2.24c-1.07,1.07-2.25,2.23-3.42,3.41-1,1-1.94,1.9-2.84,2.93-.7.81-1.29,1.72-1.91,2.6-.08.11,0,.32,0,.49l-.06.77c-.32-.08-.74-.07-.95-.27-1.64-1.55-3.25-3.15-4.86-4.73a20.85,20.85,0,0,1-1.69-1.7,6.39,6.39,0,0,1-.68-1.32c.65-.19,1.08-.31,1.49-.45.24-.08.45-.24.7-.31,3.74-1,6.14-3.62,8.33-6.56a18,18,0,0,0,1.56-2.24c.49-.91,1-.68,1.52-.16,1.64,1.6,3.27,3.22,4.9,4.83.21.2.39.43.53.59Z" transform="translate(555 46.58)"/><path class="cls-2" d="M-318.27,83.49a11.18,11.18,0,0,1-1-.66,2,2,0,0,1-.3-.51c.21-.1.48-.34.63-.28a5.8,5.8,0,0,1,1.71.94c2.42,2.31,4.8,4.68,7.19,7,.61.6.55,1.1-.05,1.75A34.73,34.73,0,0,0-316,99.43c-1.48,2.93-3.07,5.81-4.63,8.7-1.69,3.11-3.38,6.21-5.12,9.29-.21.38-.71.6-1.08.9-.15-.48-.51-1-.41-1.44.62-2.67,1.22-5.34,2-7.95,2-6.25,4.1-12.47,6.16-18.7a10.73,10.73,0,0,0,.45-1.11,1.74,1.74,0,0,0,0-1,1.49,1.49,0,0,1,0-1.82.91.91,0,0,0,.13-.57c0-.67-.05-1.34-.09-2Z" transform="translate(555 46.58)"/><path class="cls-2" d="M-300.18,145.78c.23-.57.35-1.33.63-1.4a2.42,2.42,0,0,1,1.7.3c.63.41,1.14.8,2,.49a1.26,1.26,0,0,1,1,.3c3.24,2.76,6.46,5.56,9.82,8.46a10.54,10.54,0,0,1-5.37,1.41,12.67,12.67,0,0,1-8.58-3.29,42.48,42.48,0,0,1-7.8-9.12,2.34,2.34,0,0,1-.38-.66,6.37,6.37,0,0,1,0-1.07c.33.13.77.17,1,.4.6.69,1.06,1.5,1.69,2.15a1.22,1.22,0,0,0,1.14.26c.64-.48,1-.14,1.44.22C-301.32,144.75-300.72,145.31-300.18,145.78Z" transform="translate(555 46.58)"/><path class="cls-2" d="M-479.64,147l4.61,6.8c1-1.08,1.8-.53,2.57.18a15.75,15.75,0,0,1,1.76,1.47c1,1.2,2.19.93,3.45.87a2.49,2.49,0,0,1,1.55.55c2.69,2.18,5.33,4.42,8,6.63.83.7,1.67,1.39,2.64,2.19a9.62,9.62,0,0,1-8.23.22c-4.85-2.05-8.53-5.52-11.77-9.53a23.78,23.78,0,0,1-4.32-7c-.24-.7-.4-1.43-.6-2.14Z" transform="translate(555 46.58)"/><path class="cls-2" d="M-419.48,78.18c-.24,1.8-.43,3.61-.77,5.4-.1.53-.53,1.27-.95,1.39a2,2,0,0,1-1.53-.71c-2.55-3.05-5-6.15-7.51-9.27a1.08,1.08,0,0,1,0-1c1.41-1.66,2.86-3.31,4.36-4.89a3.62,3.62,0,0,1,1.6-.89c1.26-.33,1.92.14,2.6,1.28A17.06,17.06,0,0,1-419.48,78.18Z" transform="translate(555 46.58)"/><path class="cls-2" d="M-273.27,136.07c-.2-.91-.36-1.5-.43-2.1a5.58,5.58,0,0,1,0-1.73,1,1,0,0,1,.72-.67c.21,0,.54.39.68.68a12.08,12.08,0,0,1,.49,1.56l.57-.77,1.59,1.75c2.42,2.68,4.82,5.37,7.27,8a1.24,1.24,0,0,1,.13,1.65c-1.24,2.42-5.68,2.91-7.37.9-2.46-2.92-5.28-5.53-7.9-8.32a7,7,0,0,1-.87-1.71l1.62.85.37.21C-275.69,135-274.57,135.62-273.27,136.07Z" transform="translate(555 46.58)"/><path class="cls-2" d="M-410.67,163.05a2.14,2.14,0,0,1,3.4-.45c2.87,2.85,5.67,5.77,8.58,8.75-2.13,1.24-4.43,1.7-6.66.48a30.32,30.32,0,0,1-13-13.15,9.1,9.1,0,0,1-.61-1.87c-.06-.23.05-.5.35-.82.24.34.48.67.71,1,.92,1.36,1.79,2.75,2.79,4.05a4.08,4.08,0,0,0,1.59,1C-412.64,162.46-411.7,162.71-410.67,163.05Z" transform="translate(555 46.58)"/><path class="cls-2" d="M-442.94,139.39l1.08.86c.8-1.06,1.76-.49,2.52-.29l1.47-2.59a9.55,9.55,0,0,1,1,.8q4.31,4.58,8.57,9.2a1.44,1.44,0,0,1,.23,1.06c-.42,2.4-2.21,3.39-4.4,2.36a9.6,9.6,0,0,1-2.79-1.84c-2.56-2.69-5-5.47-7.5-8.24a5.31,5.31,0,0,1-.58-1.14Z" transform="translate(555 46.58)"/><path class="cls-2" d="M-385.73,119.76c1.53-.16,3.14-.29,4.74-.5a6.82,6.82,0,0,0,1.93-.52,1.68,1.68,0,0,1,2,.5c2.92,2.74,5.82,5.5,8.73,8.25-2.88,2.92-6.42,3-9.34.31-2.7-2.51-5.26-5.16-7.87-7.76A1,1,0,0,1-385.73,119.76Z" transform="translate(555 46.58)"/><path class="cls-2" d="M-299.06,98.58l1.77-1.39.88,1.1-2,1.6-9.08-10.31,2.91-1.31c.68-.7,1.06-1.37,1.64-1.66a20.68,20.68,0,0,1,4.41-1.78c1.77-.39,2.72.47,2.58,2.28a27.61,27.61,0,0,1-1,5.23C-297.5,94.36-298.28,96.32-299.06,98.58Z" transform="translate(555 46.58)"/><path class="cls-2" d="M-359.76,133.3a3.79,3.79,0,0,1,.94.39,15.31,15.31,0,0,1,1.42,1.37c.44.47.79.89,1.63.69.41-.1,1,.44,1.47.75a10.09,10.09,0,0,1,1,.89c.1-.21.17-.38.26-.58,5.48,1.9,9.11,6.46,14.13,9.49-2.18.89-4.07,1.29-6.12.58a25.81,25.81,0,0,1-11.57-8.3c-1.27-1.53-2.32-3.24-3.47-4.87Z" transform="translate(555 46.58)"/><path class="cls-2" d="M-372.54,88.48a8.11,8.11,0,0,1,3.6-3,2,2,0,0,1,2.32.42c1.57,1.48,3.23,2.88,4,5a23.21,23.21,0,0,1,1.07,3.41,5.89,5.89,0,0,1-.34,2h-.31l.89,1.48L-362.51,99Z" transform="translate(555 46.58)"/><path class="cls-2" d="M-327.8,122l9.71,9.48c-.73,1.75-1.48,1.94-2.72.77-.93-.87-1.82-1.79-2.77-2.64-1.54-1.36-3.11-2.67-4.66-4a7.35,7.35,0,0,1-1-1.13c-.66-.86-.51-1.27.51-1.74A6.54,6.54,0,0,0-327.8,122Z" transform="translate(555 46.58)"/><path d="M-363.38,100.65c-2.85,3.72-5.52,7.28-8.26,10.78-1.79,2.3-3.62,4.58-5.58,6.74a11.23,11.23,0,0,1-3.09,2.21,5.33,5.33,0,0,1-6.32-.67c-.1-.08-.23-.14-.38-.24-1.32,4.23-2.54,8.41-3.92,12.54a101.6,101.6,0,0,1-11.43,24.38,20.82,20.82,0,0,1-5.57,6,7.15,7.15,0,0,1-10.24-1.76c-2.27-3-3-6.53-3.23-10.18-.61-9.88,1.56-19.35,4.32-28.73,1.37-4.69,2.74-9.38,4.07-14.08a6.37,6.37,0,0,0,.19-1.95,2,2,0,0,0-2.92-2.08A24.29,24.29,0,0,0-426.25,111a49.68,49.68,0,0,0-11.41,22.59,14.19,14.19,0,0,0,0,2.61,19.91,19.91,0,0,1-.14,3.79,2.87,2.87,0,0,1-4.78,1.8,8.24,8.24,0,0,1-2.37-3.05,61.25,61.25,0,0,1-2-6c-.07-.2-.13-.4-.26-.84-.72,1.74-1.3,3.29-2,4.79a64.07,64.07,0,0,1-8.3,14.37,22.52,22.52,0,0,1-6.53,5.6,9.57,9.57,0,0,1-11.49-1.09c-4.07-3.37-6.09-7.9-7.15-12.87a80.52,80.52,0,0,1-1.61-23.28,190.34,190.34,0,0,1,13.69-58.21c1.48-3.56,3.31-7,4.92-10.33-.11,0-.52.19-.92.36-7.79,3.15-15.65,6.07-23.93,7.68-8.86,1.72-17.69,2-26.43-.58-6.81-2-12.32-5.87-15.35-12.44C-536,38-535,30.21-530,23.1a13.64,13.64,0,0,1,9.21-5.8,11.43,11.43,0,0,1,4.12.17,4.33,4.33,0,0,1,3,6.47c-.86,1.6-2,3-3,4.56-1.41,2.13-2.89,4.22-4.14,6.43a13.16,13.16,0,0,0-1.6,8c.45,4,2.8,6.79,6.16,8.82a28.27,28.27,0,0,0,10.24,3.28c9.79,1.65,19.31.27,28.79-2.23a90.12,90.12,0,0,0,13-4.68q12-5.22,23.95-10.73c19.45-8.93,39.36-16.51,60.39-20.82,7.71-1.58,15.47-2.77,23.37-2.32,9.76.57,18.28,4.07,24.89,11.44,5.83,6.49,6.9,14,3.8,22.05a29.14,29.14,0,0,1-11.92,14.59,27.77,27.77,0,0,1-16.9,4.3,16.81,16.81,0,0,1-13.14-7.49,8.33,8.33,0,0,1-1.6-6.3,4.76,4.76,0,0,1,3.88-4c2.66-.57,5.23,0,7.8.55,3.53.74,7.06,1.61,10.71,1.38,5-.32,9.62-1.66,13.24-5.41a13.91,13.91,0,0,0,2-16.42c-4.4-7.33-10.91-11.39-19.37-12.57-8.17-1.14-16.16,0-24.13,1.51A245.74,245.74,0,0,0-430,34.85c-7.84,3.47-15.59,7.14-23.41,10.67-.75.33-.78.93-1,1.49-1.1,2.47-2.31,4.89-3.31,7.39A294,294,0,0,0-474.72,116c-1.14,7.07-2.12,14.17-1.81,21.36a30.25,30.25,0,0,0,2.2,11.32,18,18,0,0,0,2.79,4.28c2.52,2.91,6.26,3.13,9.3.77,3.91-3,6.49-7.11,8.67-11.42,2.07-4.09,3.83-8.34,5.69-12.54a3.2,3.2,0,0,0,.2-1.38c-.13-4.19-.49-8.39-.37-12.57a112.23,112.23,0,0,1,6.1-35,28,28,0,0,1,7.66-12.08,13.36,13.36,0,0,1,5.41-3.2,6.69,6.69,0,0,1,7.46,2.83,12.85,12.85,0,0,1,1.86,8.29,43.94,43.94,0,0,1-13.81,29.93,12.46,12.46,0,0,1-5.48,3.28,1.11,1.11,0,0,0-.62.79,106.7,106.7,0,0,0,1.17,20.38c.37-1.26.64-2.25.94-3.24a46,46,0,0,1,13.05-21,18.74,18.74,0,0,1,10-5.16c3.5-.51,6.75.07,9,3.14,1.46,2,1.61,4.34,1.53,6.71a40.59,40.59,0,0,1-2.37,11.31c-1.91,5.85-4,11.66-5.83,17.53-1.5,4.75-2.66,9.59-2.26,14.62a12.13,12.13,0,0,0,1.28,4.35,3,3,0,0,0,4.78,1.24,20.53,20.53,0,0,0,4.38-4.35,86.79,86.79,0,0,0,10.67-21.47c1.87-5.2,3.4-10.52,5-15.8a1.65,1.65,0,0,0,0-1.14,18.28,18.28,0,0,1-1.64-8.52,31.1,31.1,0,0,1,4.56-16.34,22.11,22.11,0,0,1,8.29-8.39c7.2-3.83,13,.23,14.69,6.72.16.59.23,1.21.37,2a6.34,6.34,0,0,0,.37-.66A11.92,11.92,0,0,1-357,86.83c1.33-.84,2.75-1.32,4.23-.56a3.61,3.61,0,0,1,1.88,3.9c-.38,2.74-1,5.45-1.6,8.15-1.33,5.75-2.89,11.46-4.08,17.24a43.57,43.57,0,0,0-.83,13.72A10.54,10.54,0,0,0-355,135.4a4.26,4.26,0,0,0,5.23,1.28,15.74,15.74,0,0,0,6.57-5.3c3.67-4.66,6.09-10,8.35-15.43,0-.07,0-.15.07-.21,1.87-3.52,2.3-7.33,2.63-11.26.5-6.17,1.84-12.22,5.2-17.56a17.54,17.54,0,0,1,3.68-4,4.83,4.83,0,0,1,2.84-.84,2.55,2.55,0,0,1,2.43,3,43.89,43.89,0,0,1-1.42,7.48c-2,6.69-4.22,13.33-6.29,20a24,24,0,0,0-.88,5c.1-.21.22-.41.32-.63,3.7-8.49,8-16.62,14.2-23.61a29.35,29.35,0,0,1,10.13-7.85,12.23,12.23,0,0,1,7.47-1,6.18,6.18,0,0,1,5.22,6.24,31.28,31.28,0,0,1-2.32,11.29c-2.24,6.2-4.59,12.37-6.7,18.62a54.29,54.29,0,0,0-2.91,13.33,12.6,12.6,0,0,0,1,6.64,4.45,4.45,0,0,0,6.59,2,19,19,0,0,0,7-7.51c2.06-3.6,3.92-7.32,5.63-11.1a13.82,13.82,0,0,0,.68-4.5,201.77,201.77,0,0,1,14.11-58.68,62.68,62.68,0,0,1,10.11-17.58A22.08,22.08,0,0,1-249.78,38a9.86,9.86,0,0,1,4.8-1.32c2.4,0,4.09,1.08,4.54,3.44a24,24,0,0,1,.4,6.28c-.54,7.35-3.72,13.8-7.22,20.12a120.72,120.72,0,0,1-17,23,10.44,10.44,0,0,0-2.93,6.16c-.46,3.79-1.16,7.56-1.54,11.44.57-.86,1.12-1.73,1.71-2.57,3.53-5.07,7.47-9.75,12.81-13a17.33,17.33,0,0,1,9-3c4,0,7.12,2.45,6.08,7.71a13.21,13.21,0,0,1-4.08,6.87,39.75,39.75,0,0,1-19.39,10.26l-2.35.51c2.57,1.75,3.63,4.4,4.63,7.07,1.91,5.15,3.71,10.36,5.72,15.48a25.13,25.13,0,0,0,8.36,11,15.75,15.75,0,0,0,5.94,2.93,7.24,7.24,0,0,0,8.29-3.62,17,17,0,0,0,2.12-8.28c0-1.68,0-3.36-.17-5-.29-3.37,2.57-4.23,4.88-3.24s3.37,3.05,3.65,5.44c.82,7.19-4.59,15.38-11.51,17.19-5.39,1.4-10.16-.16-14.35-3.68A31.35,31.35,0,0,1-256.06,137c-2.05-4.9-3.67-10-5.55-15a40.78,40.78,0,0,0-2.33-5.18,4.16,4.16,0,0,0-5.2-2.09,1.1,1.1,0,0,0-.56.83c-.18,3.1-.28,6.2-.47,9.29-.16,2.55-.36,5.09-.65,7.63a8.87,8.87,0,0,1-.84,2.58c-1.11,2.38-2.88,3.1-5.49,2.84a3.58,3.58,0,0,1-3-3,35.65,35.65,0,0,1-.77-4.95,34.53,34.53,0,0,1,0-3.56l-1.7,3.45a53.89,53.89,0,0,1-6.79,10.94c-2.33,2.77-5,5-8.7,5.69-5.77,1.06-10.13-2-11.28-7.78a35.27,35.27,0,0,1,.33-13.27c2.06-11.34,5.91-22.1,10.28-32.71a24.63,24.63,0,0,0,1.43-5.34c.22-1.34-.39-1.71-1.69-1.38-3.9,1-7,3.33-9.89,6a64.43,64.43,0,0,0-12.2,16.74c-2,3.77-3.67,7.75-5.49,11.63a23.55,23.55,0,0,1-1.32,2.72c-.29.48-.86,1.08-1.32,1.09a2,2,0,0,1-1.38-1,15.43,15.43,0,0,1-1.79-7.15c0-.74-.07-1.49-.13-2.54-1.58,3.6-2.95,6.93-4.5,10.17-2.13,4.46-4.63,8.7-8.46,12a11.82,11.82,0,0,1-5.29,2.73c-3.52.7-6.28-.74-8.61-3.18a16.49,16.49,0,0,1-3.79-8.15,57.11,57.11,0,0,1-1-16.86C-364,107.09-363.67,104-363.38,100.65Zm97-11,.48.2a5.07,5.07,0,0,1,.36-.54c6.46-7.52,12.51-15.32,17.3-24,3.51-6.37,6.62-12.87,6.88-20.31a23.63,23.63,0,0,0-.66-5.05.94.94,0,0,0-1.5-.7,16.61,16.61,0,0,0-2.9,1.68,29.42,29.42,0,0,0-7.1,9.48,112.74,112.74,0,0,0-8.27,21.5C-263.45,77.79-264.87,83.74-266.39,89.67Zm-173,19.67a40.44,40.44,0,0,0,3.67-2.12,33.15,33.15,0,0,0,8.38-9.58A45.53,45.53,0,0,0-420.78,78a15.25,15.25,0,0,0-.92-7.31,1.37,1.37,0,0,0-1.55-1,6.66,6.66,0,0,0-4.12,1.8c-3.36,2.93-5.45,6.72-7.13,10.75C-438.07,90.77-439.15,99.75-439.39,109.34Zm57.74,10.17c.45-.14.69-.14.85-.27a28.54,28.54,0,0,0,4.12-3.52c4.21-5.12,8.2-10.44,12.44-15.54a5.55,5.55,0,0,0,1.38-4.47,10.78,10.78,0,0,0-.46-2.34,27.94,27.94,0,0,0-2.06-5.22c-1.31-2.17-2.9-2.18-4.64-.39a9.06,9.06,0,0,0-.88,1c-5.88,8.17-9.75,17.13-10.73,27.22C-381.74,117.1-381.65,118.25-381.65,119.51Zm112.06-6c.14.05.22.1.27.09,5.15-1.58,10.35-3.12,14.6-6.63,3.63-3,6.31-6.66,7.19-11.43a3.1,3.1,0,0,0-1-3.35,3.34,3.34,0,0,0-3.72-.06,26.62,26.62,0,0,0-2.88,1.79c-5.53,4-9.57,9.34-13.34,14.94C-269.5,110.32-269.44,111.9-269.59,113.49Z" transform="translate(555 46.58)"/><path class="cls-1" d="M-316.49,196.69A55.27,55.27,0,0,0-306.87,184l.31.15.22.8.85-.73.35.12c-2.32,2.45-2,5.49-1.93,8.34s.49,5.91,2.89,8.1l.29-.23a3.4,3.4,0,0,0,.88-3.95,18.66,18.66,0,0,1-.46-11.31c.63-2.13,1.48-4.2,2.11-6.32.39-1.32.55-2.7.84-4,.14-.65.32-1.28.49-1.92l.28,0c.15.34.29.69.45,1,1.14-1.65,2.37-3.22,2.54-5.36,0-.51.74-1,1.14-1.46.17-.57.36-1.23.6-2.07l-1-1.64.31-.27a6.86,6.86,0,0,1,1.06.62c2.49,2.2,5,4.39,7.42,6.65a5.38,5.38,0,0,1,1.45,6.3c-1.12,2.89-2.33,5.74-3.44,8.63A65.21,65.21,0,0,0-293,200.23l.32.27a4.33,4.33,0,0,1,.39-.74c1.44-1.84,2.86-3.7,4.36-5.49a1.74,1.74,0,0,1,1.44-.61c.36.12.64.88.69,1.39.27,2.68.27,5.4.72,8a33.8,33.8,0,0,0,1.81,5.42,1.3,1.3,0,0,0,.66-1.93,15.89,15.89,0,0,1-.24-11.65,20.75,20.75,0,0,1,1.32-3.36c2.68-5.14,5.41-10.26,8.13-15.38,0-.1.2-.2.18-.27-.46-1.62.78-2.92.78-4.44a1.79,1.79,0,0,0-.3-.91,1.6,1.6,0,0,1,.18-2.27l-1.7-1.5a1.86,1.86,0,0,1,2.31.28c2.34,2.09,4.68,4.18,6.88,6.4,3.06,3.06,3.47,6.78,1.91,10.63-1.73,4.29-3.71,8.49-5.66,12.68a58.24,58.24,0,0,0-4.6,13.18c-.06.29-.06.58-.11.87-.38,2.06.11,3.62,2.49,4.14,1.12-1.93,2.67-.63,4.14-.28l-.45-.48c.49-.26,1-.5,1.46-.78a.67.67,0,0,0,.25-.41c.33-1.82.64-2,2.36-1.66,1.35-1.11,1.54-3.25,3.54-3.29.06-.75-.11-1.62.23-2.16s1.2-.68,1.9-1c-.23-.87-.78-1.87.45-2.43l-.93-1.84-.52.25a2.34,2.34,0,0,1,.83-.18,2.23,2.23,0,0,1,1,.39c3.2,2.44,6.33,4.95,8.61,8.34a3.89,3.89,0,0,1,.64,3.12c-1.27,5.75-7.49,13.4-16.37,12.93-4.77-.25-9.2-1.8-12.56-5.42-2.55-2.75-4.9-5.67-7.4-8.58-.29.24-.8.7-1.34,1.11-3.4,2.54-5.79,2.35-9.05.17a40.28,40.28,0,0,1-9.22-9l-.85-1.08a29.41,29.41,0,0,1-9.5,8.26,5.48,5.48,0,0,0-3.2,4.6,41.43,41.43,0,0,1-5.13,14.8,15.72,15.72,0,0,1-4.94,5.47c-3,1.92-5.85,1.89-8.44-.47-3.16-2.87-6.13-5.95-9.15-9a10.1,10.1,0,0,1-1.16-1.68l-.78.6c-3.91,3.16-7.84,6.31-11.73,9.51a3.44,3.44,0,0,0-1.14,1.61,145.31,145.31,0,0,1-12.5,31c-4.07,7.48-8.35,14.88-14.59,20.82-3.41,3.25-7.31,5.83-12.09,6.65a9.21,9.21,0,0,1-8-2c-2.61-2.27-5.23-4.54-7.75-6.91a11.91,11.91,0,0,1-1.9-2.8c-.3-.53-.87-1.14-.21-1.86.08-.08-.08-.4-.15-.6a17.55,17.55,0,0,1-.33-9.82,34.69,34.69,0,0,1,9.47-16.75,110.44,110.44,0,0,1,19.27-15.82c2.22-1.4,4.24-3.1,6.41-4.59a20.51,20.51,0,0,1,3.33-1.86c1.34-.59,2.2.08,2,1.51a18.41,18.41,0,0,1-.62,3.11c-1,3.4-2,6.78-3,10.12a6.67,6.67,0,0,0,4.32-4.08c1.68-4.43,3.52-8.81,5.05-13.29,1-3,1.66-6.19,2.44-9.3.46-1.83.86-3.68,1.33-5.72-.36.25-.61.4-.84.58a14.8,14.8,0,0,1-6.58,2.71c-1.8.36-2.94-.41-4.12-1.24-2.09-1.47-4.07-3.09-6.1-4.65-.84,1.67-1.63,3.38-2.55,5-2.09,3.72-4.83,6.78-9,8.31a11.36,11.36,0,0,1-7.59-.05,14.61,14.61,0,0,1-6.65-4.6c-2.12-2.4-4.08-4.95-6-7.48a11.08,11.08,0,0,1-1.18-2.33,2.35,2.35,0,0,1,0-.88,2.8,2.8,0,0,1,.72.47c1.12,1.48,2.21,3,3.39,4.58,1.24-1.28,2.16-.21,3.27.34,0-1.07.22-1.86-.71-2.82a12.21,12.21,0,0,1-2.17-4.23c-.16-.43.44-1.15.78-2-1-2.17-1-2.24.23-3.21-.95-2.33-.93-2.45.49-3.19-1-1.64-.95-1.87.19-2.71-.51-.66-1-1.31-1.51-2a1.83,1.83,0,0,1-.11-.68c.26,0,.58-.08.77,0a12.34,12.34,0,0,1,2,1.45c2.09,1.93,4.09,4,6.21,5.87a6.74,6.74,0,0,1,2.15,6.63c-.3,1.83-.54,3.68-.8,5.52,0,.25,0,.5,0,1,.56-.56,1-.94,1.4-1.4a55.14,55.14,0,0,0,9.28-17.26c.18-.53.28-1.22,1-1,.3.1.54.78.57,1.21.22,2.92.44,5.86,2,8.42a20.1,20.1,0,0,0,2.24,2.58l.37-.25c-.5-1.62-1.06-3.21-1.48-4.84a51,51,0,0,1-1.27-6c-.17-1.24.41-1.56,1.46-1.43v-6.48c0-.22,0-.43,0-.65-.07-1.64.3-2,1.79-1.87,1.75-5.92,3.49-11.81,5.26-17.77l-.53-1,.25-.24a13,13,0,0,1,1.59,1c2.51,2.18,4.93,4.46,7.51,6.55,1.86,1.5,2,3.45,1.78,5.48a15,15,0,0,1-.93,3.7c-1.91,5.16-3.94,10.28-5.81,15.45-.71,2-1.07,4.07-1.6,6.11l.32.16c.65-.71,1.31-1.41,2-2.13s1.07-1.22,1.94-.82.78,1.23.69,2c-.14,1.34-.31,2.68-.51,4.38.78-.57,1.3-1,1.84-1.35.21-.15.6-.4.68-.33.23.18.5.55.44.78-.12.49-.3,1.16-.68,1.38a5.21,5.21,0,0,0-2.63,5.3,5.41,5.41,0,0,1-.36,1.45,11.32,11.32,0,0,0,1.67-.3,12.62,12.62,0,0,0,6.93-5.73c.28-.48.21-1.16.44-1.69,2.12-4.82,1.94-10.08,2.93-15.12.14-.68.26-1.36.39-2.05s.38-1.24-.22-1.81c-.15-.15-.11-.56-.08-.84.42-3.33.84-6.66,1.29-10,.11-.84.25-1.71,1.54-1.85-.7-1.65-.15-3.41-1-5-.19-.33.09-.93.19-1.61-.66-.42-1.49-.93-2.29-1.49a3.5,3.5,0,0,1-.59-.67c.32-.12.71-.42.94-.33a9.91,9.91,0,0,1,2.88,1.47c2.47,2.27,4.87,4.63,7.17,7.07,1.51,1.58,1.6,3.79,1.65,5.77a72.84,72.84,0,0,1-.32,11.35c-.81,6.44-2,12.82-3.09,19.23a1.15,1.15,0,0,0,.1.76c.93-1.09,1.78-2.26,2.81-3.25,1.53-1.48,3.17-2.86,4.82-4.23.25-.21.78-.09,1.17-.12a4.75,4.75,0,0,1-.29,1.06,2.86,2.86,0,0,1-.75.94c-2.31,1.83-2.55,4.38-2.37,7,.19,2.84.36,5.7,2,8.21,1.45-.85,1.54-1.1,1.27-2.76a6.6,6.6,0,0,1-.07-2.17c.08-.43.56-.79.88-1.16s.52-.37.65-.63c1.48-3,3-5.94,4.37-8.95a3.7,3.7,0,0,0,.06-2c-.26-1.57-.58-3.14-.94-4.69a5,5,0,0,0-.66-1.22c-.17-.27-.47-.49-.55-.78-.48-1.84-1-3.67-1.35-5.53-.59-2.83.38-5.38,1.5-7.92a20.1,20.1,0,0,0,1.12-3.5c.3-1.25.53-1.43,1.8-1.4a2,2,0,0,0,1.21-.74,4.91,4.91,0,0,1,4.34-1.58,11,11,0,0,1,2.59,1c.4-1.05-.3-1.57-1.18-2s-2-1-3-1.53a5.22,5.22,0,0,1-.89-.81,3.52,3.52,0,0,1,1.26-.16,14.87,14.87,0,0,1,6.56,3.58c4.85,4.62,8.82,9.83,10.46,16.49A22.66,22.66,0,0,1-316.49,196.69Zm-90.91,88.59a28.89,28.89,0,0,0,4.06-1.92,50,50,0,0,0,13.76-12.88A102.06,102.06,0,0,0-380,253.27c.91-2,1.73-4.06,2.59-6.1a30.13,30.13,0,0,0-3.9,2.26c-7.12,4.6-13.68,9.85-18.93,16.6-3.44,4.42-6.32,9.12-7.48,14.68C-408.06,282.16-408.69,283.7-407.4,285.28Zm80.49-96.84c-.55.62-1,1.07-1.42,1.57a23.21,23.21,0,0,0-3.46,6.52c-.61,1.6-.51,2.73,1,3.8a38.82,38.82,0,0,1,3.69,3.35C-326.3,198.57-325.71,193.64-326.91,188.44Zm23.45,13.13,2.29,2.54c1.29-1.14,2-.05,3,.74-.11-.69-.18-1.16-.25-1.58-2.4-.08-2.38-2.37-3.59-3.55Zm21.89,7.08-.78,1.1,5.48,4.63c-.27-1-.51-2-.77-3C-279.62,211.47-280.4,209.84-281.57,208.65Zm-63.66,15.27,1.19,1.36.15-.09c-.16-.64-.31-1.29-.5-2.05Zm15.19-6.71-.27-.15-1.53,3,.23.12Z" transform="translate(555 46.58)"/><path class="cls-2" d="M-326.48,203.65c-.13-1.54,0-1.5,1.5-2.07a27.4,27.4,0,0,0,5.86-2.85,33.38,33.38,0,0,0,8.15-8.44c1.06-1.51,2.11-3,3.34-4.83a6.54,6.54,0,0,1,.49,1.49,36.48,36.48,0,0,1,0,4.05,18.93,18.93,0,0,0,1.34,7.81,1.22,1.22,0,0,0,.18.4c1.52,1.66,3,3.35,4.6,4.95a2.87,2.87,0,0,0,3.11.21c.42-.19,1,0,1.59.09.42-1.06,1-1.28,1.76-.42,2.76,3,5.45,6.08,8.24,9.21a5.59,5.59,0,0,1-4.53.95,10,10,0,0,1-5.15-2.69c-2.65-2.72-5.23-5.49-7.83-8.25a7.29,7.29,0,0,1-.51-.63,35.69,35.69,0,0,1-12.52,10l-6.59-6.14c-.9-.84-1.83-1.67-2.74-2.5Z" transform="translate(555 46.58)"/><path class="cls-2" d="M-358.7,234.94l-8.5-8.23c-.59-.58-.9-1.11.07-1.69.68-.41,1.2-1.07,1.85-1.52a92.36,92.36,0,0,0,12.13-10.37c1.63-1.62,3-3.44,4.56-5.16.39-.43.82-1,1.46-.38s.23,1-.1,1.62a4.82,4.82,0,0,0-.81,2.14,50.49,50.49,0,0,0,.29,7.07,16.6,16.6,0,0,0,1.45,4.31c.61,1.43.71,1.68-.45,2.63-3.73,3.09-7.52,6.12-11.29,9.16A5.41,5.41,0,0,1-358.7,234.94Z" transform="translate(555 46.58)"/><path class="cls-2" d="M-282.91,209.23c.27.36.56.71.8,1.09.49.81.9,1.68,1.46,2.43.28.37.84.52,1.25.8.65.44,1.28.92,1.93,1.39l1-1.26-1.28-2.1c-.76-.42-1.54-.89-2.36-1.3s-.69-1.78-2.14-1.31c-.22-1.49-.42-2.95-.64-4.41A2.36,2.36,0,0,0-283,204a5.76,5.76,0,0,1-.36-3.09c.08-1,.75-2.14,0-3.22-.2-.3,0-.9.11-1.62a14.44,14.44,0,0,1,1.4,1.15q4.32,4.49,8.62,9a1.4,1.4,0,0,1,.44.91c-.3,2.15-.68,4.29-1.05,6.54l-1.26.28,2.54,2.28c.19-.61.35-1.11.52-1.64.42.06.91,1.07,1.5-.24l10.14,10.83a12.73,12.73,0,0,1-5.62.08c-7.73-1.14-12.34-6.39-16.38-12.39a4.9,4.9,0,0,1-.8-3.46Z" transform="translate(555 46.58)"/><path class="cls-2" d="M-303,187.5c-.55-.77-1.15-1.57-.08-2.77a6.47,6.47,0,0,0,.5.86c3.14,3.7,6.31,7.38,9.41,11.11a2.73,2.73,0,0,1,.4,1.57,17.69,17.69,0,0,1-.28,2.27l1.37-1.54.28.07a3,3,0,0,1-.34,1.14c-1.37,1.74-3.72,3.58-6.85,2.95a3.46,3.46,0,0,1-2.24-1.58,19.11,19.11,0,0,1-3-8.34,34.41,34.41,0,0,1-.25-3.93C-304.08,188.1-304,188.09-303,187.5Z" transform="translate(555 46.58)"/><path class="cls-2" d="M-388.33,205.24l3.41,3.17,1.9-.49a10.65,10.65,0,0,0,1.65-.55,23.08,23.08,0,0,0,6.64-4.36,5.09,5.09,0,0,1,1.28-.63c.2.52.6,1.05.55,1.54-.33,3.88-.86,7.74-1.08,11.62-.06,1-.73,1.37-1.16,2-.14.19-1,.12-1.34-.11a77.21,77.21,0,0,1-6.86-5,40.56,40.56,0,0,1-4.4-5,10.35,10.35,0,0,1-1-1.82Z" transform="translate(555 46.58)"/><path class="cls-2" d="M-326.48,203.65l.3.38c-.18,1.55-.26,3.12-.55,4.64a39.89,39.89,0,0,1-1.16,4.11c-.28.9-1,1.2-1.66.61-2.92-2.48-5.8-5-8.67-7.55a3.39,3.39,0,0,1-.56-1.07c.36,0,.72-.08,1.08-.14s.49-.11.78-.18a12,12,0,0,1-.47-2c-.08-1,.76-1.4,1.57-1.67a9,9,0,0,1,1-.19c-.62-.8-1.44-1.48-.25-2.22l-1.14-1.51.16-.24a2.2,2.2,0,0,1,.71.24c2.32,1.88,4.65,3.76,6.91,5.72C-327.8,203.05-327.48,203.89-326.48,203.65Zm-9.8.73,0,.54,4.46.27a21.42,21.42,0,0,0-3-.8A7.9,7.9,0,0,0-336.28,204.38Z" transform="translate(555 46.58)"/><path class="cls-2" d="M-395.22,224.54a10.7,10.7,0,0,1-7.51.66,14.37,14.37,0,0,1-6.91-4.17,45.32,45.32,0,0,1-7.18-8.92,25.7,25.7,0,0,1-1.06-2.4l.34-.2,1.85,2.28,1.59,2a2.65,2.65,0,0,0,2.09,1.11c.72,0,1.4.69,2.15,1.1.35-1.05,1-1.56,2.13-.74,2.58-.49,3.79,1.68,5.4,2.93,2.3,1.79,4.39,3.85,6.57,5.8C-395.58,224.11-395.43,224.31-395.22,224.54Z" transform="translate(555 46.58)"/><path class="cls-2" d="M-329.14,191.36c-1.87-1.81-3.52-3.4-5.16-5s-3.35-3.26-5-4.92c-.22-.22-.46-.78-.37-.88.27-.28.81-.65,1.05-.55.8.35,1.16-.17,1.56-.6a4.88,4.88,0,0,1,5.05-1.5,4.1,4.1,0,0,1,2.63,1.94c.86,1.44,1.82,2.82,2.64,4.28a3.53,3.53,0,0,1,.16,3.27C-327.14,188.94-328.58,189.64-329.14,191.36Z" transform="translate(555 46.58)"/><path class="cls-2" d="M-396.76,294.42c-2.95.87-5.91,1.08-8.6-.67a43.92,43.92,0,0,1-9.18-7.87,14,14,0,0,1-1.42-2.07,2.94,2.94,0,0,1-.18-1c.38,0,.84-.22,1.13-.07a8.72,8.72,0,0,1,1.46,1.14c.31.26.5.53,1.08.31.33-.13,1.06.37,1.41.76.87,1,2,.4,2.85.32.68-.05,1.27-.27,1.81.21q4.81,4.29,9.6,8.62S-396.78,294.26-396.76,294.42Z" transform="translate(555 46.58)"/><path class="cls-2" d="M-380.48,246.75c.85,1.59.85,1.59-.41,2.24-.07,0-.17,0-.19-.08-1.72-3.37-3.44-6.74-5.12-10.13-.41-.84-.7-1.48.65-2.12a33.23,33.23,0,0,0,4.81-3.39,14.67,14.67,0,0,1,1.82-1.2c.84-.42,1.5,0,1.65.9a3.29,3.29,0,0,1,0,1,53.18,53.18,0,0,1-2.62,11.69A9.22,9.22,0,0,1-380.48,246.75Z" transform="translate(555 46.58)"/><path d="M-368.29,224.39c6.18-4.46,11.83-9,16.47-14.67,2-2.43,4.22-4.64,5.66-7.49a1.17,1.17,0,0,0-.18-1.59c-6-6.81-3.85-20.14,3.75-24.84,4.64-2.88,9.28-2.1,12.5,2.3a18.67,18.67,0,0,1,2,3.51,28.84,28.84,0,0,1,2.31,11.07c.1,3,0,6.1,0,9.25l.89-.44a35.36,35.36,0,0,0,11.39-9.92c1.51-2,2.88-4,4.42-6a7.59,7.59,0,0,0,1.2-3.79,43.66,43.66,0,0,1,4.43-13.67,14.83,14.83,0,0,1,3.24-3.91,5.38,5.38,0,0,1,2.93-.91,2,2,0,0,1,2.14,2.12,10.15,10.15,0,0,1-.57,3.19c-1.31,3.52-2.88,6.95-4.09,10.5-1.78,5.22-3.31,10.55-3,16.15a18,18,0,0,0,1.32,5.59c1,2.46,2.85,3,5.16,1.73a11.39,11.39,0,0,0,3.63-3A49.23,49.23,0,0,0-288,191.9c.78-1.63.83-3.6,1.22-5.41a53.49,53.49,0,0,1,6.32-16.35,7.38,7.38,0,0,1,3.9-3.5,3,3,0,0,1,4.25,2.29,10.39,10.39,0,0,1-.54,6.45c-1.15,2.91-2.41,5.78-3.75,8.61-2.49,5.24-5,10.46-6.31,16.17a11.85,11.85,0,0,0,.51,7.72,5.71,5.71,0,0,0,7.3,3.3,15.11,15.11,0,0,0,6-3.66c1.76-1.65,3.44-3.37,5.23-5a13.7,13.7,0,0,1,2.62-1.77,2.7,2.7,0,0,1,3.19.07,2.9,2.9,0,0,1,.76,3.12,16.88,16.88,0,0,1-4.85,8.16,15.17,15.17,0,0,1-10.44,4.66,12.75,12.75,0,0,1-10.47-4.8,20.72,20.72,0,0,1-4.65-12.38c-.11-1.57-.18-3.13-.28-4.84-.22.32-.37.57-.54.8-1.79,2.48-3.48,5.05-5.41,7.4a7.17,7.17,0,0,1-5,2.65c-2.66.21-4.6-1.18-6.14-3.17a16.64,16.64,0,0,1-3.19-8.95c-.2-2.24-.22-4.49-.33-6.85-1,1.43-2.06,2.82-3.06,4.22-3.22,4.54-6.85,8.72-11.83,11.34a5.6,5.6,0,0,0-3.25,4.68,41.8,41.8,0,0,1-5.15,14.79,15.77,15.77,0,0,1-4.87,5.4c-3.37,2.23-6.69,1.77-9.21-1.37-3.11-3.88-3.91-8.39-3.4-13.21.15-1.45.46-2.87.72-4.51l-3.81,4.5A82,82,0,0,1-368,226a3.17,3.17,0,0,0-1.35,1.87,144.44,144.44,0,0,1-18.73,41.41,83.59,83.59,0,0,1-6.48,8.41,25.8,25.8,0,0,1-12.64,8.25A10.54,10.54,0,0,1-413,286a8.77,8.77,0,0,1-6.2-7.93c-.53-6.07,1.49-11.44,4.55-16.47a64.85,64.85,0,0,1,20.28-20.43c5.08-3.36,10.26-6.57,15.42-9.81a2.17,2.17,0,0,0,1.11-1.62c1-7.14,2.13-14.28,3.17-21.42.27-1.89.41-3.8.62-5.86-.88,1-1.6,1.91-2.42,2.71a11.74,11.74,0,0,1-6.8,3.46,6.47,6.47,0,0,1-6.69-3c-1.67-2.55-2.1-5.48-2.54-8.49-.57,1.74-1.07,3.43-1.69,5.07-1.51,4-3.41,7.84-6.6,10.84a12.61,12.61,0,0,1-8.47,3.82,9.32,9.32,0,0,1-8.18-4.22c-3.84-5.26-2.76-12.37.62-16.75.94-1.2,2.11-2.42,3.78-1.78s1.71,2.37,1.58,3.87c-.25,2.76-.75,5.49-1,8.25-.28,3.32,1.15,6.69,4.71,7.38a6.6,6.6,0,0,0,6.24-1.79,28.75,28.75,0,0,0,6.18-10,34.63,34.63,0,0,0,2.7-12.72,34.62,34.62,0,0,1,3.3-14.83,16.72,16.72,0,0,1,4.46-6.15,6.66,6.66,0,0,1,2.7-1.31,2.22,2.22,0,0,1,2.85,2.12,11.83,11.83,0,0,1-.4,4.6c-1.42,4.06-3.16,8-4.66,12a52.21,52.21,0,0,0-3.32,12.9,13.38,13.38,0,0,0,1,6.42c.8,2,2.31,2.57,4.36,2.05,3.95-1,8.76-6.39,9-11.07a109.37,109.37,0,0,1,3.55-21.23,18.2,18.2,0,0,1,2.11-4.65,6.43,6.43,0,0,1,2.37-2.17,2.92,2.92,0,0,1,4.42,1.73,21.4,21.4,0,0,1,1,5.76,88.06,88.06,0,0,1-1.44,16.11A294.33,294.33,0,0,1-367.64,222C-367.83,222.67-368,223.37-368.29,224.39Zm-10.24,8.71c-.23,0-.31,0-.37,0l-2.23,1.38c-7,4.23-13.94,8.42-20.15,13.74a56.51,56.51,0,0,0-13.36,16.08c-2.25,4.19-3.73,8.62-3.22,13.51.47,4.55,3.48,7.21,8,7,3.29-.19,6.08-1.68,8.71-3.51,5.13-3.57,8.53-8.57,11.3-14a120.7,120.7,0,0,0,10.08-28.48C-379.31,236.89-378.93,235-378.53,233.1Zm36.35-35.73a7.49,7.49,0,0,1,1-.56,18.5,18.5,0,0,1,3.11-.94c1.74-.23,3.29,2,2.73,4A15.74,15.74,0,0,1-336.8,203c-.36.67-.38,1,.53,1.16a18,18,0,0,0,7.93-1,1.29,1.29,0,0,0,1-1.33,57.62,57.62,0,0,0,0-11.89,23.86,23.86,0,0,0-2.95-9.64,3.48,3.48,0,0,0-5.4-1.17,13.84,13.84,0,0,0-4.32,5.28A19.81,19.81,0,0,0-342.18,197.37Zm14.62,7a20.06,20.06,0,0,1-10.28,1.13,1,1,0,0,0-.75.43,32.48,32.48,0,0,0-4.89,11.5c-.45,2.51-.89,5.05.1,7.55.71,1.79,1.74,2.32,3.62,1.88a3.3,3.3,0,0,0,1.22-.44,22.72,22.72,0,0,0,3.68-3,27.87,27.87,0,0,0,5.27-10.7C-328.82,210-328.28,207.29-327.56,204.33Z" transform="translate(555 46.58)"/><path class="cls-2" d="M-351.94-36.7c2.77,1.15,3.22,3,1.27,5.34s-4.92,4-7.76,5.42c-.37.19-.75.35-1.38.65.44.06.63.1.83.11,4.13.22,8.26.42,12.39.69a1.5,1.5,0,0,0,1.53-.67,38.39,38.39,0,0,1,8.11-8.43,7.77,7.77,0,0,1,4.27-1.8c3.16-.13,4.05,2.63,3,4.79a8.88,8.88,0,0,1-2.19,2.6,21.94,21.94,0,0,1-7.64,4.11,1.47,1.47,0,0,0-.74.49c2.28.49,4.55,1,6.84,1.45a4.93,4.93,0,0,0,2.29-.16c4.72-1.57,9.44-2.38,14.22-.28a6.77,6.77,0,0,1,4.12,3.92,4.14,4.14,0,0,1-3.86,5.75,12.09,12.09,0,0,1-4.05-.59,34.93,34.93,0,0,1-11-5.67,8.74,8.74,0,0,0-2.95-1.36,41.27,41.27,0,0,0-5.68-1.23c.69.53,1.41,1,2.08,1.58a13,13,0,0,1,4.79,7.24,3.11,3.11,0,0,1,.11.91c-.1,1.53-.32,3.06-2,3.73s-2.93,0-4-1.19c-2.3-2.46-3.55-5.53-4.81-8.57-.61-1.48-1-3-1.65-4.84l-13.41-.77-.07.37,1,.48a15.28,15.28,0,0,1,6.46,5.55,6.9,6.9,0,0,1,1,3A3,3,0,0,1-355-10.86,7.55,7.55,0,0,1-358.3-13c-2.33-3-4.41-6.15-6.63-9.23-.24-.34-.73-.8-1-.75-4.47.64-8.93,1.35-13.39,2.06a9,9,0,0,0-1,.33c1.43.27,2.6.46,3.76.73a12.62,12.62,0,0,1,6.72,3.95,7.75,7.75,0,0,1,1,1.38,4,4,0,0,1,.18,4.15,3.15,3.15,0,0,1-3.67,1.53A26,26,0,0,1-378.12-11c-3.2-1.68-5.66-4.31-8.08-6.93a1.26,1.26,0,0,0-1.67-.41c-3.73,1.61-7.47,3.19-11.2,4.79a3.58,3.58,0,0,0-1.18.8c.43,0,.86,0,1.28,0a20.34,20.34,0,0,1,9.46,1.45,11.05,11.05,0,0,1,3.69,2.59A3.45,3.45,0,0,1-388-2.92a13.23,13.23,0,0,1-5-.37A24.84,24.84,0,0,1-402.82-9c-.54-.48-1.07-1-1.74-1.58l-5.36,3.76-.33-.23a3.35,3.35,0,0,1,.53-1.16,36.15,36.15,0,0,1,3.15-2.67,1.62,1.62,0,0,0,.75-1.5c.06-4.27.38-8.51,2.14-12.48a11.09,11.09,0,0,1,2-2.93,2.8,2.8,0,0,1,3.21-.92,2.92,2.92,0,0,1,1.85,2.93,9.78,9.78,0,0,1-.58,3.82c-1,2.34-2.34,4.54-3.54,6.8a9.77,9.77,0,0,1-.59.89c1.74-.86,3.17-1.63,4.66-2.29,2.62-1.16,5.26-2.3,7.93-3.36a1.87,1.87,0,0,0,1.15-1.41c1.26-3.87,2.55-7.74,5.24-10.9a12.37,12.37,0,0,1,3.22-2.68,3.15,3.15,0,0,1,3.86.37c1.16,1,1.06,2.44.64,3.74a17.12,17.12,0,0,1-4.82,6.91c-.47.44-1,.85-1.59,1.38,2.44-.48,4.72-1,7-1.36,2.12-.35,4.25-.61,6.38-.83a2.32,2.32,0,0,0,1.7-.92c2.4-2.74,4.83-5.45,7.33-8.1a9.86,9.86,0,0,1,5.32-3Zm23,17.62a33.06,33.06,0,0,0,10.11,4.74,7.54,7.54,0,0,0,2.17.19,2.7,2.7,0,0,0,2.45-3.77A5.27,5.27,0,0,0-317-20.79a14.51,14.51,0,0,0-10.27-1.1c-1.27.29-2.54.56-4,.88,3.56.8,6.88,1.53,10.19,2.3a3.78,3.78,0,0,1,1,.57l-.14.42C-323.18-17.86-326-18.79-328.92-19.08Zm-71.93,9.62c3,2.3,6.1,4.36,9.86,5.1a7,7,0,0,0,2.84,0c1.91-.47,2.48-2.16,1.13-3.56a10.54,10.54,0,0,0-3.28-2.23c-3.66-1.6-7.54-1.67-11.54-1.11l7.1,3.12-.1.41C-397-7.58-398.8-9.08-400.85-9.46Zm17.33-8.33-.2.3c2.1,1.65,4.12,3.44,6.34,4.91a21.73,21.73,0,0,0,4.8,2.11,2.09,2.09,0,0,0,2.58-.7c.65-1,.24-1.91-.29-2.8a4.49,4.49,0,0,0-.4-.57c-3.31-3.92-7.69-4.92-12.81-4.65,2.7,1.92,5.19,3.69,7.67,5.47l-.26.42C-378.88-14.21-380.92-16.51-383.52-17.79Zm39.4-4.56-.23.23c1.74,3.79,3,7.8,5.54,11.22a2.75,2.75,0,0,0,1,1,3.38,3.38,0,0,0,2.08.45,2.07,2.07,0,0,0,1-1.73,10.67,10.67,0,0,0-1-3.69,15.57,15.57,0,0,0-6.08-6.1C-342.57-21.48-343.35-21.91-344.12-22.35Zm-40.27.49a18.3,18.3,0,0,0,7.72-7.52,7.7,7.7,0,0,0,.79-2.26c.28-1.73-.8-2.63-2.41-1.91a7.82,7.82,0,0,0-2.51,1.93c-2.63,2.93-4,6.53-5.28,10.2,1.79-2.39,3.5-4.82,5.24-7.23a4.89,4.89,0,0,1,.81-.76l.4.36C-381.21-26.65-382.8-24.26-384.39-21.86Zm42.54-2.82a22.29,22.29,0,0,0,8.44-3.76,14.2,14.2,0,0,0,2.27-2.25,2,2,0,0,0,.08-2.56,1.85,1.85,0,0,0-2.3-.49,9.42,9.42,0,0,0-2.8,1.5c-2.7,2.49-5.27,5.11-7.89,7.68,0,0,0,.18,0,.25,2-1.64,4.06-3.27,6.11-4.87a4.19,4.19,0,0,1,1-.46l.2.37Zm-60.83,9.85a20.72,20.72,0,0,0,4.44-8.2,6.58,6.58,0,0,0,.18-2.49c-.09-.65-.49-1.55-1-1.74s-1.26.38-1.85.72a2.34,2.34,0,0,0-.7.89c-2.29,3.95-2.38,8.39-2.82,12.78a2.53,2.53,0,0,0,.64-1.13c.42-1.81.79-3.63,1.21-5.45a11.51,11.51,0,0,1,.49-1.35l.49.15C-401.95-18.71-402.31-16.77-402.68-14.83Zm38-10.1,8.23-7.69.44.43c-2,2.27-4.33,4.16-6.42,6.52a2.89,2.89,0,0,0,.54,0,31.69,31.69,0,0,0,8.59-4.81,9.71,9.71,0,0,0,2-2.32c.79-1.29.13-2.37-1.38-2.2a6.81,6.81,0,0,0-3,1C-359.23-31.59-361.88-28.19-364.67-24.93Zm3.95,5.48-.35.37c1.06,1.45,2.07,2.94,3.22,4.32a12.22,12.22,0,0,0,2.46,2.19,2.05,2.05,0,0,0,2.75-.06,2.11,2.11,0,0,0,.13-2.67c-2.1-4-5.54-6.16-9.69-7.38l-.42.44c2,1.71,4.07,3.41,6.14,5.14-1.09.92-1.21,1-1.81.36C-359.14-17.6-359.92-18.54-360.72-19.45Z" transform="translate(555 46.58)"/><path class="cls-2" d="M-174.45,232a3.59,3.59,0,0,0-.4.64c-.18.59-.48.63-.92.27-6.28-5.23-13.67-8.16-21.4-10.5a108.26,108.26,0,0,1-18.45-7,37.39,37.39,0,0,1-10.82-7.88,20,20,0,0,1-5.12-18.39,7.32,7.32,0,0,1,3.44-5.23c-.47-.28-.81-.5-1.17-.69a69.69,69.69,0,0,0-16.3-6.46,6.59,6.59,0,0,1-1.59-.63c-.2-.11-.27-.47-.41-.72.24-.1.48-.3.7-.28a26.43,26.43,0,0,1,2.95.38c5.62,1.17,10.74,3.58,15.77,6.22.3.16.61.3.91.45,2.28-5.05,5.18-6.84,10.7-6.61a22.86,22.86,0,0,1,2.85.35c10,1.79,17.81,7,24,15A72.33,72.33,0,0,1-175,224c.2,1.2.34,2.41.51,3.62ZM-226,182.82l6,3.74a138.72,138.72,0,0,1,31,26.91c.31.37.64,1.24.48,1.41-.65.66-1.08-.12-1.47-.51-1.64-1.61-3.25-3.25-4.85-4.9a146.89,146.89,0,0,0-31.3-24.58,1.18,1.18,0,0,0-1.69.17,7.68,7.68,0,0,0-2.05,4,18.24,18.24,0,0,0,4.74,17,37,37,0,0,0,10.57,7.65c6,3.06,12.49,5.05,18.89,7.16,5,1.65,10.08,3.23,14.48,6.31l5.58,3.89c-.1-1.08-.18-2.1-.29-3.13s-.22-2.13-.4-3.19a72,72,0,0,0-14.78-32.87c-4.34-5.49-9.47-9.91-16.14-12.32-3.77-1.36-7.59-2.48-11.66-2.15A7.63,7.63,0,0,0-226,182.82Z" transform="translate(555 46.58)"/><path class="cls-2" d="M-497.13-46a2.84,2.84,0,0,0,.59-.34c.39-.4.64-.31.84.17,2.83,6.78,7.51,12.18,12.69,17.25a97,97,0,0,1,11.79,13.25,33.54,33.54,0,0,1,5.35,10.77,18,18,0,0,1-3.56,16.78,6.56,6.56,0,0,1-4.91,2.74c.26.42.43.73.64,1a63,63,0,0,0,10.3,11.92,5.62,5.62,0,0,1,1,1.16c.12.17,0,.49,0,.74-.23,0-.51.05-.67-.06a21.13,21.13,0,0,1-2.2-1.54,54,54,0,0,1-10-11.5c-.17-.25-.36-.49-.54-.73-3.91,3.07-7,3.3-11.27.82A19.09,19.09,0,0,1-489.14,15C-496.36,9.43-500.42,2-502-6.88a65,65,0,0,1,2-32.52c.34-1,.73-2.07,1.09-3.1Zm20.69,60.56c-1.1-1.85-2.17-3.65-3.23-5.47a124.49,124.49,0,0,1-13.5-34.3c-.1-.42,0-1.26.2-1.32.79-.26.81.54,1,1,.64,2,1.25,3.94,1.83,5.93A131.93,131.93,0,0,0-475.45,13a1.05,1.05,0,0,0,1.41.56,6.81,6.81,0,0,0,3.31-2.36,16.39,16.39,0,0,0,3.29-15.5,33,33,0,0,0-5.25-10.48c-3.54-5-7.86-9.21-12.08-13.55-3.32-3.41-6.68-6.76-8.91-11.05-.93-1.79-1.87-3.58-2.83-5.41-.37.9-.73,1.74-1.07,2.61s-.71,1.79-1,2.7a64.71,64.71,0,0,0-1.87,32.33C-499.29-1-497,4.68-492.72,9.37c2.44,2.65,5,5.13,8.4,6.56A6.86,6.86,0,0,0-476.44,14.57Z" transform="translate(555 46.58)"/><path class="cls-2" d="M-460.79,199c4.6-1.58,9.13-2.95,13.17-5.53l.24.2c-.24.38-.39.87-.72,1.11a17,17,0,0,1-3.08,1.95c-3.13,1.34-6.31,2.53-9.47,3.79.44,5.66-1.59,10.64-4.89,15.18a9.81,9.81,0,0,1-5.85,3.62c-1.31.32-1.89-.14-1.9-1.48,0-4.87.8-9.48,4.18-13.26.93-1.05,2-1.94,3-2.85-3.37.33-6.81.69-10.26,1a24.66,24.66,0,0,1-3.33,0,1,1,0,0,0-1.18.89,25.6,25.6,0,0,1-4,8.45c-1.89,2.66-4.33,4.55-7.63,4.79a50.12,50.12,0,0,1-7.45-.13c-1.42-.11-1.73-.91-1.1-2.19s1.43-2.8,2.2-4.16c2.64-4.67,6.74-7.16,12-8.12-1.59-.29-3.2-.51-4.77-.9-3.93-1-7.86-2-11.76-3.06a2.37,2.37,0,0,0-2.32.42c-1.3,1-2.62,2-3.9,3a16.39,16.39,0,0,1-16,3.18c-1.13-.35-2.3-.6-3.4-1s-1.17-1.18-.34-1.85c3.43-2.77,6.84-5.66,11.34-6.5a59.79,59.79,0,0,1,6.55-.54s-.34-.18-.62-.36c-3.11-1.95-6.22-3.92-9.34-5.85a2.56,2.56,0,0,0-1.27-.36,12.94,12.94,0,0,1-11.91-7.09c-1.8-3.23-3.24-6.67-4.77-10.05a4.75,4.75,0,0,1-.1-1.7,6.1,6.1,0,0,1,1.62.2c1.91.79,3.77,1.7,5.67,2.5,6.16,2.58,10,6.91,10.58,13.78a2.1,2.1,0,0,0,.79,1.39c3.29,2.23,6.63,4.38,10.06,6.63.07-.38.12-.48.09-.51-3.28-3-4.6-7-5.18-11.22-.3-2.2-.47-4.42-.67-6.63a6.63,6.63,0,0,1,0-1.94c.1-.52.38-1.23.76-1.39s1,.27,1.43.61c1.76,1.54,3.55,3.05,5.17,4.74,4.81,5,6,11.09,4.93,17.77-.05.33-.12.66-.19,1a84,84,0,0,0,17.84,4.15l-.78-.51c-1.39-.89-2.82-1.71-4.14-2.69a16.33,16.33,0,0,1-5.59-6.88q-1.25-3-2.34-6.1a1.58,1.58,0,0,1,.13-1.36,1.56,1.56,0,0,1,1.34,0c2.7,1.19,5.43,2.31,8,3.68a16.33,16.33,0,0,1,9,13.31c.12,1,.45,1.39,1.54,1.39a84.4,84.4,0,0,0,15.11-1.64c-.5-.21-.74-.33-1-.41-1.19-.4-2.4-.76-3.59-1.18A16.62,16.62,0,0,1-479,189c-.47-1.05-1-2.06-1.49-3.11s0-1.55,1-1.31c2.91.68,5.85,1.27,8.67,2.2a13.48,13.48,0,0,1,8.91,9.07ZM-500,215.5c2.4,0,4.66.12,6.89,0a9.24,9.24,0,0,0,7.53-4.84c1.31-2.19,2.39-4.52,3.55-6.8a8.92,8.92,0,0,0,.35-1.11l-11.81,8.34-.37-.5c1.65-1.27,3.27-2.56,4.94-3.8s3.38-2.44,5.15-3.71C-490,202.13-496.57,207.15-500,215.5Zm-10.8-31.05.51-.23c2,3.26,3.22,6.94,4.88,10.65,1.49-9.26-2.55-15.63-10-20.73.33,3.11.55,6,1,8.92a16.34,16.34,0,0,0,5.11,10.14c.82.75,1.75,1.36,2.64,2l.21-.23Zm-12.54,2.86c-1.55-1.45-2.93-2.66-4.21-4s-2.63-2.44-3.32-4.12l.27-.23,7.4,6.65a7.71,7.71,0,0,0-.27-2.28,11.87,11.87,0,0,0-3.63-6.5c-3.3-2.84-7.35-4.25-11.29-6,1.6,3.5,3.27,6.93,5.09,10.27a12,12,0,0,0,2.47,3A11,11,0,0,0-523.33,187.31Zm41.53,13.44c-.93-4.22-2.4-7.89-5.55-10.6s-6.8-3.91-10.56-5.54c2,7.82,8.66,15.16,14.58,16.11-.54-.51-1-.92-1.43-1.35-1.79-1.79-3.6-3.56-5.35-5.39a12.55,12.55,0,0,1-1.26-1.85l.39-.3Zm-24.71-2.65-.09-.24c-.23,0-.45.07-.67.12-3.94,1.06-7.87,2.13-11.82,3.17a5.13,5.13,0,0,1-1.24,0l-.11-.48c2.05-.63,4.09-1.28,6.14-1.88s4.18-1.16,6.35-1.76c-6.07-2.33-15.72.44-20.28,5.83,1.84.42,3.62.8,5.38,1.24a11.35,11.35,0,0,0,8.76-1.12C-511.5,201.48-509,199.74-506.51,198.1Zm34.22-7.42.39-.43,9.53,7.92c-1.33-4.08-3.06-7.63-6.95-9.28-3-1.28-6.28-2-9.57-3,2.5,7.8,8.26,11.18,15.58,12.88C-466.33,195.92-469.59,193.6-472.29,190.68Zm.58,27.09a9.42,9.42,0,0,0,5.33-3.52,22.35,22.35,0,0,0,4.73-13.36c-1,1.65-1.79,3.18-2.68,4.67-2.31,3.88-2.32,3.87-3.31,4l4.86-8.5C-468.48,203.56-472.49,211.16-471.71,217.77Z" transform="translate(555 46.58)"/><path class="cls-2" d="M-290.3,4.23c1.28-3.4,2.35-6.8,3.8-10a39.83,39.83,0,0,1,12-15.65,17.34,17.34,0,0,1,8.86-3.8c6.16-.63,10.41,2.49,11.57,8.57a23.86,23.86,0,0,1-1.5,13.07c-2.65,7.05-6.87,13.14-11.7,18.85-.24.28-.47.57-.58.71a44,44,0,0,1,4.73,0c3,.31,4.28,2.19,3.69,5.13a15.43,15.43,0,0,1-3.73,6.9,48,48,0,0,1-11.41,9.4c-.39.24-.76.51-1.14.77a2.8,2.8,0,0,0-.29.35c.87,0,1.6,0,2.33,0,1.66.11,3.26.47,4.07,2.12a4.49,4.49,0,0,1-.6,4.77,19.52,19.52,0,0,1-6.06,5.38c-4.26,2.65-9,3.87-13.79,5.25-3.19.94-6.34,2-9.5,3A2.17,2.17,0,0,0-301.14,61c-.67,3.57-1.62,7.1-1.56,10.78a4.36,4.36,0,0,1-.32,1.13l-.42.06a7.2,7.2,0,0,1-.39-1.33c-.35-3.68.51-7.24,1.28-10.79a3.69,3.69,0,0,0-.49-3c-3-4.85-5.6-9.89-6.62-15.56-.61-3.35-1.06-6.76-.12-10.14.46-1.64,1.14-3.2,3-3.51a11.48,11.48,0,0,1,2.58.13c0-1.78,0-3.71,0-5.63a46.36,46.36,0,0,1,1.54-14.23,22.64,22.64,0,0,1,2.8-5.47,6.46,6.46,0,0,1,2.37-1.94,4.71,4.71,0,0,1,6.57,1.8C-290.67,3.55-290.49,3.89-290.3,4.23ZM-300.5,58c1.39-.55,2.56-1.11,3.79-1.48,2.93-.88,5.88-1.69,8.82-2.51,4.83-1.35,9.54-3,13.47-6.21A16.84,16.84,0,0,0-271,43.86c1-1.61.12-3.26-1.77-3.61a11.24,11.24,0,0,0-2.17-.1c-1.12,0-2.23.11-3.34.06-.38,0-1-.3-1.06-.57s.23-.84.51-1.13a5.93,5.93,0,0,1,1.24-.82c4.89-3,9.74-6,13.36-10.58a20,20,0,0,0,2.91-4.64c1.5-3.72.19-5.37-4-4.91-1.45.15-2.87.48-4.32.64-.39.05-1.07-.16-1.16-.4s.14-.89.3-1.32c.06-.16.27-.26.4-.4,6.08-6.37,11-13.45,13.78-21.9a19,19,0,0,0,.38-12,8.16,8.16,0,0,0-9.33-5.84,17.54,17.54,0,0,0-9.26,4.28C-280.85-14-284.9-7.13-287.47.66c-.61,1.86-1.14,3.74-1.78,5.58-.12.37-.63.91-.87.87a1.8,1.8,0,0,1-1-.89c-.38-.66-.52-1.45-.91-2.09a3.25,3.25,0,0,0-4.65-1.29,5.76,5.76,0,0,0-2.08,1.76A17.66,17.66,0,0,0-301,9a42.15,42.15,0,0,0-1.63,13.41c0,2.34.19,4.67.23,7a1.93,1.93,0,0,1-.47,1.39c-.2.18-.87-.16-1.32-.29a4.08,4.08,0,0,1-.49-.28,2.06,2.06,0,0,0-3.12,1.1,10.13,10.13,0,0,0-.76,3.1,29.52,29.52,0,0,0,2.15,12.94c1.33,3.26,2.92,6.42,4.49,9.84,1-3.57,2-6.79,2.91-10a1.08,1.08,0,0,0-.09-.75A33.3,33.3,0,0,1-302,36.55a4.72,4.72,0,0,1,.08-1.18h.36c1,3.25,2,6.5,3,10a5.62,5.62,0,0,0,.33-.58q3.76-8.68,7.52-17.39a1.6,1.6,0,0,0,.17-.87,33.21,33.21,0,0,1-.18-10,3.57,3.57,0,0,1,.46-1.07l.5.1v9.3l.35,0c.12-.19.24-.37.34-.56A135.06,135.06,0,0,1-277.68,7.1a6.65,6.65,0,0,0,1-2.48c.68-3,1.25-6.13,1.91-9.19A7,7,0,0,1-274.13-6l.43.12L-275.5,4c1.82-1.85,3.43-3.78,5.06-5.71a12.75,12.75,0,0,1,1.36-1.39.78.78,0,0,1,.7,0c.1,0,.15.43.07.59A6.71,6.71,0,0,1-269-1.38l-12.69,16.65c-.26.33-.46.71-.86,1.32l7.47-2.71.22.45a11.07,11.07,0,0,1-1.63,1.06c-2.07.91-4.18,1.71-6.23,2.65a3.92,3.92,0,0,0-1.69,1.4,126.94,126.94,0,0,0-9,17.34,4.86,4.86,0,0,0-.2.74c2.41-1.24,4.49-3,7.25-3.22a2.53,2.53,0,0,1-.95,1.06c-2.24,1.4-4.51,2.76-6.72,4.2a2.83,2.83,0,0,0-1,1.28c-1.31,3.63-2.62,7.27-3.81,10.95C-299.54,53.78-299.95,55.84-300.5,58Z" transform="translate(555 46.58)"/><path class="cls-2" d="M-459.95,245.92c-2.9,1.79-5.86,3-9.19,2.79-2.71-.19-5.4-.57-8.09-1-1.29-.18-1.57-1-.62-1.89a57.07,57.07,0,0,1,5.48-4.72c3.35-2.37,7.21-2.55,11.14-2,1.59.23,3.16.58,4.75.81a.91.91,0,0,0,.79-.34c2.42-4.57,4.8-9.15,7.19-13.74,0,0,0-.06-.12-.18a22,22,0,0,1-7.5,4.74c-3.33,1.39-6.86,1.5-10.39,1.46-1.25,0-1.61-.87-.89-2.15A22.34,22.34,0,0,1-457.19,220c3.23-1.49,6.56-1.23,9.92-.83l1.42.17c.7-2.83,1.41-5.6,2-8.39.37-1.64.6-3.31.93-5a3.48,3.48,0,0,1,.47-.92c.22.32.65.65.63.95a35,35,0,0,1-.52,5c-.68,3.25-1.52,6.48-2.32,9.83a21.25,21.25,0,0,1,8.3,9.39,16.51,16.51,0,0,1,1.07,11.54c-.41,1.72-1.14,1.91-2.53.85q-1.79-1.35-3.54-2.75A15.24,15.24,0,0,1-447,228.31a1.61,1.61,0,0,0-.29-.91l-.5.94c-2,3.72-3.91,7.46-6,11.13a1.63,1.63,0,0,0,.19,2.24,28.45,28.45,0,0,1,5.78,10.1c1.22,4.2-.53,7.56-3,10.7a1,1,0,0,1-1.67,0c-2.39-3.33-4.84-6.67-5.73-10.76a29.05,29.05,0,0,1-.27-4.91,4.41,4.41,0,0,0-.29.34c-2.73,3.62-5.43,7.24-8.19,10.83a1.2,1.2,0,0,0-.11,1.6c2,3.41,3.65,7,3.83,11.05a10.68,10.68,0,0,1-.74,4.67,38,38,0,0,1-3.53,5.76c-.69,1-1.53.87-1.95-.26-1.45-3.92-3-7.84-3.17-12.05a29.16,29.16,0,0,1,.54-4.88c-1,.89-2,1.85-3.06,2.89a1.47,1.47,0,0,0-.27,1.13,7.08,7.08,0,0,1-1.88,6.25,16,16,0,0,1-3.72,3,36.29,36.29,0,0,1-12.53,4.26,4.69,4.69,0,0,1-1.59-.34,6.87,6.87,0,0,1,.44-1.66c.89-1.65,1.84-3.27,2.82-4.86a33.83,33.83,0,0,1,2.12-3.14c2.79-3.59,6.65-4.91,11-5a4.78,4.78,0,0,0,3.84-1.61c1-1.1,2.18-2,3.33-3.09-.33-.22-.41-.29-.43-.28-4.1,2.09-8.39,1.71-12.69,1-1.73-.29-3.44-.68-5.15-1.09a1.3,1.3,0,0,1-.8-.68,1,1,0,0,1,.39-.84c3.12-1.93,6.07-4.21,9.84-4.77a17.18,17.18,0,0,1,8.05.7c1.2.39,2.4.8,3.61,1.11a1.23,1.23,0,0,0,1.06-.23c2.63-3.45,5.21-6.92,7.79-10.4C-459.92,246.23-459.95,246.14-459.95,245.92Zm-6.21-15.47c7.37,1,15.39-3.08,18.58-7.76l-9.15,2.34a1.3,1.3,0,0,1,.76-.74,76.08,76.08,0,0,1,7.78-2.16c1.29-.24,1.66-.72,1.78-1.8C-457,218.56-462.42,223.87-466.16,230.45Zm29.32,10.88c2.39-7.25-1.82-15.47-8.22-19.55a1.67,1.67,0,0,0,.18,2.31,49.25,49.25,0,0,1,2.82,4.32,4.72,4.72,0,0,1,.34,1.33l-.31.08c-1.27-1.86-2.55-3.71-4-5.78C-446.59,233.16-443,237.57-436.84,241.33Zm-56.78,38.87A33.29,33.29,0,0,0-482,276.25a17.45,17.45,0,0,0,3.72-3,7.26,7.26,0,0,0,1.79-5.31c-1,.82-1.66,1.46-2.4,2-1.8,1.43-3.59,2.87-5.43,4.24a4.86,4.86,0,0,1-1.44.45l-.14-.36,7.82-6.41-.15-.26c-.75.08-1.49.19-2.23.26a11.52,11.52,0,0,0-8.92,5.21C-490.88,275.31-492.14,277.67-493.62,280.2Zm41.86-18.76c2-2.83,3.6-5.61,2.7-9.14-1-4.07-3.61-7.25-6-10.72l-.73,1.12c1.06,2.16,2.06,4.17,3,6.21a4.46,4.46,0,0,1,.21,1.28l-.36.09-3.46-6.34a11.57,11.57,0,0,0-.81,7.3C-456.18,255-453.92,258.11-451.76,261.44Zm-25.06-14.85c7.93,2.08,16.52.31,18.62-3.91l-7.81.61-.06-.4a4.71,4.71,0,0,1,1.09-.42c2.35-.22,4.71-.48,7.07-.56.77,0,1.11-.2,1.3-.91-2.2-.26-4.35-.52-6.51-.75C-468.9,239.63-473,242.55-476.82,246.59Zm7.63,14.5-.32,0c-.41,1-.84,1.95-1.23,2.94a12.23,12.23,0,0,0-.16,7.68c.69,2.74,1.51,5.45,2.27,8.17h.38c.83-1.33,1.68-2.64,2.48-4a9.76,9.76,0,0,0,1.09-6.75,31.81,31.81,0,0,0-3.21-8.9,5.43,5.43,0,0,0-.46-.69c-.11.29-.23.43-.21.55.47,2.15,1,4.29,1.42,6.45a4.55,4.55,0,0,1-.15,1.35l-.36,0Q-468.42,264.46-469.19,261.09Zm-.31-3.2c-6.56-2.62-13.28-2.59-19.33,2.63,4.3.93,8.65,2.08,13.17,1.31A10,10,0,0,0-470,259h-8.67c.2-.23.3-.47.42-.48C-475.16,258.28-472.09,258.07-469.5,257.89Z" transform="translate(555 46.58)"/><path class="cls-2" d="M-494.67,231.13c-11.51,5-21.7,11.05-28,22.1,3.81,4.35,4.19,8.75,1,12.39a7.58,7.58,0,0,1-9.8,1.5,8.5,8.5,0,0,1-2.81-10.63c1.8-4,5.48-5.39,10.5-3.94,5-9.67,13.55-15.4,22.68-20-3.93-.23-8.07-.36-12.18-.74s-8.08-2-12-3.57l-.64,1a7.32,7.32,0,0,1-7.68,3.22,7.62,7.62,0,0,1-5.57-6.08c-.85-4.26,2.09-8.55,6-9.09a7.46,7.46,0,0,1,8.38,8.83c-.18,1,.1,1.23.92,1.53a59,59,0,0,0,20.46,3.66,27.42,27.42,0,0,0,8.66-1.46A69.83,69.83,0,0,1-480,226.46c1.36-.16,1.73-.06,2.33.71-1.3.22-2.52.39-3.73.63a55.29,55.29,0,0,0-7.72,1.71,16.74,16.74,0,0,0-11,12.29c-.23.88-.38,1.78-.57,2.73a3.76,3.76,0,0,1,3.06,2.7,3.88,3.88,0,0,1-2.49,4.7,3.5,3.5,0,0,1-4.41-1.89,3.7,3.7,0,0,1,1.73-4.91,2.09,2.09,0,0,0,1.37-2,17.8,17.8,0,0,1,6.38-11.46A6.57,6.57,0,0,0-494.67,231.13Z" transform="translate(555 46.58)"/><path class="cls-2" d="M-323.77,279.54c.58.75,1.14,1.45,1.69,2.17,2.88,3.74,5.7,7.52,7.27,12a19.39,19.39,0,0,1,.76,3,4.9,4.9,0,0,1-5,6.09,24.06,24.06,0,0,1-4.48-.79,14.1,14.1,0,0,1-1.43-.48c.27,2.48.6,4.74.75,7,.24,3.4.54,6.83-.62,10.14s-3.12,5.92-6.74,6.76c-3.19.74-5.88-.57-8.33-2.41A17.2,17.2,0,0,1-346.63,311c-.36-3-.44-6-.65-9.08-.5.26-1,.58-1.6.83a44.41,44.41,0,0,1-4.84,2,3.09,3.09,0,0,1-4-2.29,11.49,11.49,0,0,1,.18-6.67c1.06-3.79,3.12-7.06,5.22-10.32l1.43-2.24c-.53.16-.84.24-1.14.34-.69.22-1.37.51-2.07.66-1.8.39-3.64.67-5.05-.88s-1.31-3.44-.67-5.31a21.08,21.08,0,0,1,4.69-7.3c3.55-3.86,7.24-7.6,11-11.32,2.58-2.59,2.73-2.55,1.66-6-1.22-4-2.62-7.92-4-11.87a4.7,4.7,0,0,1-.27-.88c0-.22.08-.64.19-.67a.9.9,0,0,1,.79.16,8,8,0,0,1,1.13,2c1.52,4.5,3,9,4.42,13.53a2.38,2.38,0,0,0,1.52,1.75,62,62,0,0,1,16.47,10.38,15.19,15.19,0,0,1,5,7.14c.72,2.45-.44,4.16-3,4.44C-321.32,279.5-322.46,279.48-323.77,279.54Zm-20.68-2.75-.44-.22a12.19,12.19,0,0,1,.55-1.29c1.43-2.61,2.89-5.22,4.33-7.84.2-.36.49-.81.42-1.15-.51-2.7-1.09-5.38-1.7-8.26-.8.87-1.43,1.58-2.07,2.27-4,4.3-8.06,8.53-11.92,12.94a26.29,26.29,0,0,0-3.36,5.57,3.19,3.19,0,0,0,.43,3.67c1,1.06,2.29,1,3.54.61s2.42-.93,3.67-1.29c.49-.15,1.36-.16,1.57.12a2,2,0,0,1,.05,1.67A29.67,29.67,0,0,1-351,286.5c-1.38,2.39-2.86,4.72-4.09,7.18a12.38,12.38,0,0,0-1.56,7.2c.34,2.61,1.54,3.33,4,2.3a45.16,45.16,0,0,0,4.56-2.41c1.82-1,2.48-.69,2.61,1.38.21,3.2.23,6.45.75,9.6a14.89,14.89,0,0,0,7.88,11.39c3.95,2.08,7.49,1,9.81-2.85a12.45,12.45,0,0,0,1.79-7.14c-.16-3.43-.46-6.87-.84-10.28-.27-2.38.39-3,2.65-2.29a16.6,16.6,0,0,0,2.76.76c3.52.55,6.21-1.3,5.06-5.18a26.38,26.38,0,0,0-2.63-6.32c-1.92-3.12-4.23-6-6.3-9a3,3,0,0,1-.61-2.13c.28-.92,1.32-.61,2.12-.59a14.9,14.9,0,0,0,2.5-.08c2.07-.29,2.66-1.25,1.89-3.2a14.79,14.79,0,0,0-4.6-6.08A69,69,0,0,0-338,259.58c-.4-.18-.8-.34-1.39-.59.5,2.43.92,4.64,1.43,6.83a1.72,1.72,0,0,0,.83.86c2.26,1.36,4.56,2.67,6.83,4a9.3,9.3,0,0,1,1,.85l-.21.34c-3-.56-5.27-2.71-8-3.84.69,5.06,1.37,10.06,2.08,15.06,0,.29.35.55.56.81,2.63,3.28,5.27,6.55,7.89,9.85a6.07,6.07,0,0,1,.58,1.32l-.32.18L-335,285.06c-.18,5-.33,9.61-.53,14.27a4.25,4.25,0,0,1-.57,1.35,4.19,4.19,0,0,1-.57-1.41c-.05-3.61,0-7.21,0-10.82,0-.42,0-.84-.08-1.54-1.62,2.64-3,5-4.51,7.31a7.35,7.35,0,0,1-1.08,1.08l-.34-.28c.2-.39.38-.78.6-1.15,1.14-2,2.2-4,3.46-6a8.59,8.59,0,0,0,1.5-6.57c-.76-4.17-1.24-8.38-1.88-12.91C-341.07,271.38-342.3,274.4-344.45,276.79Z" transform="translate(555 46.58)"/><path class="cls-2" d="M-491.61,163.48a11.67,11.67,0,0,1-1.55-.5,50.69,50.69,0,0,1-11.74-8.39c-2.43-2.18-4.79-4.42-7.21-6.61-.26-.23-.77-.5-1-.4a16.57,16.57,0,0,1-11.47-.17c-7.21-2.43-12.78-7.15-17.45-13a54.67,54.67,0,0,1-11.89-27.63c-.7-5.62-.76-11.31-1-17-.07-1.35.56-1.8,1.88-1.51a6.12,6.12,0,0,1,1.61.6A164.64,164.64,0,0,1-530.18,102c7.39,5.49,12.47,12.83,16.14,21.16a54.56,54.56,0,0,1,3.21,9.67,24.82,24.82,0,0,1-.26,10.5c-.63,3.17-.63,3.18,1.72,5.33,4.59,4.19,9,8.54,14.32,11.89.94.59,1.9,1.14,2.84,1.74a8.69,8.69,0,0,1,.85.77Zm-21.78-16.71c-1.66-1.8-3.1-3.44-4.61-5-10.53-10.86-19.14-23.14-26.82-36.1a.88.88,0,0,1-.16-.3c0-.28,0-.56,0-.84a2.3,2.3,0,0,1,.87.31,5.65,5.65,0,0,1,.84,1.09c1.09,1.62,2.21,3.22,3.26,4.87a207.54,207.54,0,0,0,25.85,33c.47.48.92,1,1.57,1.67.24-2.3.51-4.33.67-6.38a28.13,28.13,0,0,0-2.25-12.44c-3.44-8.82-8.27-16.74-15.8-22.64-7-5.45-14.69-9.71-22.47-13.87a6.85,6.85,0,0,0-1-.34c0,.56,0,.94,0,1.31.21,3.75.38,7.5.65,11.24a55.11,55.11,0,0,0,12.15,30.86c4.5,5.65,9.79,10.25,16.69,12.74A22,22,0,0,0-513.39,146.77Z" transform="translate(555 46.58)"/><path class="cls-2" d="M-215.33,90.28a6.22,6.22,0,0,1,.44-1.06c.59-.94,1.23-1.85,1.82-2.78,3.35-5.28,5.53-11.11,7.89-16.86,1.21-3,1.21-3-.72-5.56a24.81,24.81,0,0,1-4.7-9.39,54.65,54.65,0,0,1-1.22-10.11c-.23-9.1,1.24-17.91,5.59-26a163.59,163.59,0,0,1,13.7-20.95,6.36,6.36,0,0,1,1.2-1.23c1.08-.82,1.84-.68,2.35.57,2.15,5.24,4.52,10.42,6.28,15.79a54.66,54.66,0,0,1,1,30.06c-1.73,7.3-4.75,13.95-10.23,19.22a16.58,16.58,0,0,1-10.32,5c-.28,0-.62.48-.75.81-1.26,3-2.45,6-3.71,9a51,51,0,0,1-7.05,12.6,11.41,11.41,0,0,1-1.19,1.11ZM-193,60.87c5.18-5.19,8-11.61,9.67-18.64a55.14,55.14,0,0,0-2.16-33.09c-1.35-3.5-2.8-7-4.21-10.44-.14-.35-.32-.69-.55-1.19a7,7,0,0,0-.81.75c-5.26,7.08-10.45,14.23-14.42,22.12-4.29,8.55-5.29,17.77-4.64,27.22a28,28,0,0,0,3.27,12.21c1,1.78,2.12,3.51,3.32,5.49.29-.9.49-1.54.71-2.18a206.63,206.63,0,0,0,9.32-40.86c.25-1.94.58-3.87.88-5.8a6,6,0,0,1,.29-1.34c.11-.26.43-.44.65-.65.11.26.23.51.32.78,0,.1,0,.22,0,.34-1.42,15-4,29.78-8.87,44.08-.71,2.06-1.31,4.16-2,6.49A22,22,0,0,0-193,60.87Z" transform="translate(555 46.58)"/><path class="cls-2" d="M-261.36,271.25c.52-5.44,3.29-8.81,8.06-10,5-1.22,10.23,2,10.75,6.74a10,10,0,0,1-8,10.87c-4.87,1-8.64-1.14-10.36-5.78-.08-.21-.15-.43-.25-.72a49.33,49.33,0,0,1-19.3,1.81,26.3,26.3,0,0,1,11.14,10.35,7.66,7.66,0,0,1,6.93.32,6.38,6.38,0,0,1,2.89,3.6,6.49,6.49,0,0,1-3.26,8,7,7,0,0,1-8.77-2,6.78,6.78,0,0,1,1.26-9.3c-4.6-6.16-10.31-10.73-18-12.53a45.07,45.07,0,0,1-15-6.46,16.79,16.79,0,0,1-5-5,2.44,2.44,0,0,1-.29-1.38A30.92,30.92,0,0,0-295,263.47a26.58,26.58,0,0,0,13.67-2.63,6.94,6.94,0,0,1-.63-5.51,7.52,7.52,0,0,1,2.77-4,7,7,0,0,1,7.68-.83,5.9,5.9,0,0,1,3.37,5.95,7.39,7.39,0,0,1-4.42,6.52,6.47,6.47,0,0,1-7.33-.73,1.38,1.38,0,0,0-1.19-.18c-7.67,4.18-15.53,3.66-23.49,1.05-.1,0-.21,0-.35.12C-291.68,272.85-277,274.69-261.36,271.25Z" transform="translate(555 46.58)"/><path class="cls-2" d="M-247.23,233.42c1.22.52,2.48,1,3.66,1.58,6.64,3.39,13.15,7,18.2,12.64,1.92,2.15,3.72,4.41,4.49,7.27,1,3.56-1.67,6.34-5.23,5.34a11.71,11.71,0,0,1-4.26-2.34,54.46,54.46,0,0,1-9.47-11.07c-2.43-3.58-4.73-7.25-7-10.91a9.88,9.88,0,0,1-.73-2.21Z" transform="translate(555 46.58)"/><path class="cls-2" d="M-213.33,225.94a10.23,10.23,0,0,1,3.74,1.67c2.76,1.87,2.56,4.74-.49,6.07a15.86,15.86,0,0,1-5.3,1.3,37.4,37.4,0,0,1-17-3c-2.14-.91-4.13-2.15-6.19-3.25a2.31,2.31,0,0,1-.73-.55c-.33-.43-.6-.91-.9-1.37a5.47,5.47,0,0,1,1.51-.6C-233.34,225.7-216.37,225.4-213.33,225.94Z" transform="translate(555 46.58)"/><path class="cls-2" d="M-433.68,11c-.36-.38-.87-.69-1.06-1.14C-438,2.2-444.15-2.78-450.68-7.41c-2.84-2-5.82-3.88-7.92-6.75a6.44,6.44,0,0,1-.92-6.62c1.29-3.1,4.25-4.46,7.34-3.14a17.55,17.55,0,0,1,4.81,3.06c5,4.59,8.26,10.43,10.6,16.73A111.44,111.44,0,0,1-433.55,7a19,19,0,0,1,.25,3.79Z" transform="translate(555 46.58)"/><path class="cls-2" d="M-418.73-12a44.83,44.83,0,0,1-3.1,17,16.49,16.49,0,0,1-1.31,2.54c-.19.31-.62.46-.95.69-.17-.34-.47-.68-.48-1-.05-1.11.05-2.22,0-3.33-.2-6.17-2.37-11.8-4.89-17.32-1.08-2.36-2.25-4.69-3.12-7.13A4.47,4.47,0,0,1-431.1-26a4.76,4.76,0,0,1,5.69.16c2.93,1.95,4.49,4.88,5.46,8.12C-419.39-15.84-419.13-13.9-418.73-12Z" transform="translate(555 46.58)"/><path class="cls-2" d="M-430.14,183.83a4.42,4.42,0,0,0-.61.32,22.26,22.26,0,0,1-2.3,1.46,7.77,7.77,0,0,0-4.85,7c-.13,1.79-.28,3.59-.5,5.37-.11.87,0,2.07-1.25,2.18s-1.32-1.09-1.56-1.94c-.77-2.81-1.44-5.64-2.24-8.43-.66-2.35-1.14-2.65-3.57-2.7a35.48,35.48,0,0,1-4.13-.21c-.53-.07-1-.65-1.47-1,.39-.41.7-1,1.17-1.2a46.31,46.31,0,0,1,4.66-1.24,5.22,5.22,0,0,0,4.3-4.11c.55-2.35,1-4.7,1.56-7.06a4.35,4.35,0,0,1,.35-1.32,6.17,6.17,0,0,1,1.13-1.09c.28.41.74.8.8,1.24.24,1.59.35,3.19.48,4.79.14,1.76.14,3.53.37,5.27.3,2.23,1.07,2.7,3.28,2.4,1.14-.15,2.28-.25,3.42-.33a2.49,2.49,0,0,1,.83.26C-430.23,183.58-430.19,183.7-430.14,183.83Z" transform="translate(555 46.58)"/><path class="cls-2" d="M-201.81,100.28a4.33,4.33,0,0,1,.54,1.29c.19,2.45.34,4.89.44,7.34.14,3.63.6,4.09,4.22,4,1,0,1.91,0,2.87,0,.67,0,1.39.11,1.37.85a1.87,1.87,0,0,1-.88,1.4,25.11,25.11,0,0,1-4.64,1.64,3.12,3.12,0,0,0-2.73,3c-.19,1.72-.38,3.43-.64,5.13-.14.87-.08,2.07-1.3,2.15s-1.24-1.08-1.47-1.9c-.52-1.85-.9-3.73-1.46-5.56-.76-2.47-1.77-3.15-4.37-3.23a35.33,35.33,0,0,1-4.12-.27c-.49-.07-.9-.61-1.35-.94.37-.42.67-1.09,1.12-1.22a60,60,0,0,1,6-1.44,4.39,4.39,0,0,0,3.89-4c.38-2.34.84-4.67,1.32-7a4.77,4.77,0,0,1,.71-1.28Z" transform="translate(555 46.58)"/><path class="cls-2" d="M-301.21,254.58a9.07,9.07,0,0,1-1-2c-.47-2-.81-4.06-1.23-6.08-.53-2.53-1-2.94-3.57-3.25a23.2,23.2,0,0,1-2.51-.27c-.41-.09-.74-.5-1.11-.76.31-.37.55-.95.93-1.07a31.31,31.31,0,0,1,3.49-.73c2.61-.48,3.44-1.33,3.91-3.93.26-1.46.57-2.93.91-4.38.15-.65.24-1.53,1.16-1.44s.8,1,.88,1.65c.27,2,.42,4.12.74,6.16.29,1.85.68,2,2.53,1.75a24,24,0,0,1,3.76-.39c.48,0,1,.52,1.45.81-.35.39-.64.94-1.08,1.15-1.55.74-3.15,1.4-4.75,2a3.16,3.16,0,0,0-2.15,2.35c-.35,1.73-.59,3.47-.88,5.2a10.85,10.85,0,0,1-.34,1.92C-300.23,253.69-300.64,254-301.21,254.58Z" transform="translate(555 46.58)"/><path class="cls-2" d="M-315,160.9a10.09,10.09,0,0,1-1.14.94c-1.09.64-2.19,1.24-3.3,1.84a5.55,5.55,0,0,0-2.9,5.12,10.56,10.56,0,0,1-.31,2.38c-.1.36-.53.85-.84.88a1.29,1.29,0,0,1-1-.7c-.52-1.48-.92-3-1.37-4.49-.69-2.36-.76-2.42-3.2-2.6a17.61,17.61,0,0,1-2.63-.23c-.6-.14-1.43-.46-1.62-.92-.33-.8.52-1.15,1.16-1.41,1.35-.54,2.7-1.09,4.08-1.53a2.94,2.94,0,0,0,2.24-2.83c.17-2.06.38-4.11.69-6.15.06-.44.61-.81.94-1.21.3.43.77.82.87,1.28.45,2.33.7,4.69,1.21,7,.47,2.1.88,2.27,3,2.13a29.81,29.81,0,0,1,3,0C-315.78,160.4-315.49,160.65-315,160.9Z" transform="translate(555 46.58)"/><path class="cls-2" d="M-288.53-25.06a10.4,10.4,0,0,1-1.14.95c-1.09.63-2.19,1.24-3.3,1.84a5.52,5.52,0,0,0-2.89,5.11,10.66,10.66,0,0,1-.32,2.39c-.1.36-.53.85-.84.88a1.28,1.28,0,0,1-1-.71c-.52-1.47-.92-3-1.36-4.49-.7-2.35-.77-2.41-3.21-2.59a17.61,17.61,0,0,1-2.63-.24c-.6-.14-1.43-.45-1.62-.91-.33-.8.52-1.16,1.16-1.41,1.35-.54,2.7-1.1,4.08-1.53a2.93,2.93,0,0,0,2.24-2.84c.17-2.05.38-4.11.69-6.15.07-.44.61-.8.94-1.21.3.43.78.82.87,1.29.45,2.32.7,4.69,1.22,7,.47,2.1.87,2.26,3,2.13a27.1,27.1,0,0,1,3,0C-289.33-25.55-289-25.3-288.53-25.06Z" transform="translate(555 46.58)"/><path class="cls-2" d="M-390.39,58.69a4.44,4.44,0,0,1-1,.66,30.85,30.85,0,0,1-3.57.84,2.9,2.9,0,0,0-2.63,2.75c-.21,1.79-.26,3.59-.44,5.38-.07.68.31,1.76-.83,1.83s-.89-1-1.05-1.62c-.48-1.94-.81-3.91-1.36-5.81-.73-2.48-2-3.3-4.57-3.36a20.94,20.94,0,0,1-2.85-.24c-.33,0-.61-.43-.91-.65.29-.3.54-.78.87-.85,1.39-.26,2.81-.36,4.21-.58,3.21-.49,4.13-1.42,4.58-4.61.26-1.81.48-3.64.72-5.46a2,2,0,0,1,.16-.78,6.68,6.68,0,0,1,.7-.91c.21.31.57.61.6.93.17,2.06.26,4.13.39,6.2.07,1.1.15,2.21.26,3.31a1.66,1.66,0,0,0,1.84,1.73,36.7,36.7,0,0,1,3.78.24,3.77,3.77,0,0,1,1.14.56Z" transform="translate(555 46.58)"/><path class="cls-2" d="M-514.44,77.19a6.36,6.36,0,0,1,.73,1.57c.3,1.81.49,3.64.73,5.46.05.34.12.68.2,1,.42,1.83.87,2.17,2.7,2,.72-.06,1.44-.17,2.16-.24a7.86,7.86,0,0,1,.84,0c0,.33.1.78-.07,1a4,4,0,0,1-1.28.88c-1,.44-2,.79-3,1.21a3.2,3.2,0,0,0-2,3.3,24.37,24.37,0,0,1-.26,4,2,2,0,0,1-1,1.42c-.86.25-1.11-.61-1.28-1.28-.35-1.37-.62-2.77-1-4.14a20.42,20.42,0,0,0-.75-2.29A1.64,1.64,0,0,0-519.43,90a19.47,19.47,0,0,1-3.33,0c-.49-.07-.93-.59-1.39-.9.34-.41.6-1,1-1.18a43.14,43.14,0,0,1,4.26-1.38A2.75,2.75,0,0,0-516.64,84c.26-1.82.55-3.63.92-5.43a5.38,5.38,0,0,1,.76-1.38Z" transform="translate(555 46.58)"/><path class="cls-2" d="M-191.21,146.06a6.36,6.36,0,0,1,.73,1.57c.3,1.81.49,3.64.73,5.46.05.34.12.68.2,1,.42,1.83.88,2.17,2.7,2,.72-.06,1.44-.17,2.16-.24a8.14,8.14,0,0,1,.85,0c0,.33.1.78-.08,1a4,4,0,0,1-1.28.88c-1,.44-2,.79-3,1.21a3.2,3.2,0,0,0-2,3.29,23.36,23.36,0,0,1-.26,4,2,2,0,0,1-1,1.42c-.86.25-1.11-.61-1.28-1.28-.35-1.38-.62-2.77-1-4.14a20.42,20.42,0,0,0-.75-2.29,1.63,1.63,0,0,0-1.78-1.14,18.51,18.51,0,0,1-3.33,0c-.49-.06-.92-.58-1.38-.89.34-.41.6-1,1-1.18a41.5,41.5,0,0,1,4.26-1.38,2.75,2.75,0,0,0,2.21-2.46c.26-1.82.56-3.63.92-5.43a5.13,5.13,0,0,1,.77-1.38Z" transform="translate(555 46.58)"/><path class="cls-2" d="M-231.33,6.55a6.05,6.05,0,0,1,.65,1.6c.21,1.83.31,3.66.46,5.5,0,.34.09.68.15,1,.33,1.84.76,2.2,2.6,2.14.72,0,1.44-.1,2.16-.13a8.29,8.29,0,0,1,.85.06c0,.34.05.79-.13,1a3.91,3.91,0,0,1-1.32.82c-1,.39-2,.68-3,1.06a3.19,3.19,0,0,0-2.16,3.19,23.34,23.34,0,0,1-.46,4,2,2,0,0,1-1.06,1.37c-.87.2-1.08-.67-1.21-1.35-.28-1.39-.48-2.79-.77-4.18a21.1,21.1,0,0,0-.63-2.33,1.64,1.64,0,0,0-1.72-1.23,18.34,18.34,0,0,1-3.32-.19c-.49-.09-.9-.63-1.34-1,.36-.39.64-1,1.08-1.13a43.18,43.18,0,0,1,4.33-1.16,2.73,2.73,0,0,0,2.33-2.34c.35-1.81.74-3.61,1.19-5.39a5,5,0,0,1,.84-1.33Z" transform="translate(555 46.58)"/></g></svg>